<?xml version="1.0" encoding="UTF-8" standalone="no"?>
<svg xmlns="http://www.w3.org/2000/svg" xmlns:xlink="http://www.w3.org/1999/xlink" version="1.1" viewBox="0 0 800 800">
  <path fill="#000000" d="M448.5,197.8c-14.7-14.7-35.1-23.9-57.5-23.9h-5.7c-8.7,0-17.2,1.4-25.2,4c-16.1,5.3-30.1,15.3-40.3,28.5
   c-10.2,13.2-16.5,29.6-16.5,47.4c0,2.6,0.1,5.2,0.4,7.8c1.5,14.1,6.7,27.1,14.4,37.7c1.5,2.1,3.1,4.1,4.8,5.9
   c9.3,10.4,20.9,17.9,33.9,21.7c6.3,1.8,12.8,2.8,19.6,2.8h5.7c8.7,0,17.2-1.4,25.2-4c16.1-5.3,30.1-15.3,40.3-28.5
   c10.2-13.2,16.5-29.6,16.5-47.4c0-2.6-0.1-5.2-0.4-7.8C470.2,226.5,461.6,211,448.5,197.8z"/>
  <path fill="#000000" d="M693.1,268c-6.6-16.7-25.5-29.8-46.3-37.1c-13.8-4.8-28.3-7.5-38.5-7.5c-1.7,0-3.3,0.1-4.6,0.2
   c-4.5,0.3-9,0.4-13.6,0.4c-7.8,0-15.5-0.4-23.2-1c-15.4-1.3-30.6-3.7-45.6-6.9c-14.9-3.2-29.7-7.2-44.2-11.8
   c-14.4-4.7-28.5-9.9-42.3-15.7c-13.7-5.7-27.1-11.9-40.2-18.5c-13-6.6-25.7-13.7-38-21.2c-12.2-7.5-24-15.3-35.4-23.7
   c-10.2-7.5-20.1-15.3-29.6-23.6c-3.1-2.7-6.1-5.3-9.1-8.1c-1.5-1.4-3-2.8-4.5-4.1c-1.4-1.3-2.9-2.6-4.4-3.9
   c-2.9-2.5-5.8-5.1-9-7.4c-3.1-2.3-6.3-4.6-9.7-6.5c-13.5-7.9-29.1-12.1-45.8-12.1c-0.6,0-1.2,0-1.8,0c-24.3,0.5-47.1,10.6-65,27.2
   c-17.9,16.7-30.9,39.3-36.5,66.1c-2,9.7-3,19.8-3,29.9c0,11.2,1.2,22.3,3.5,33.2c2.9,13.8,7.7,27.1,14.3,39.6
   c3.2,6.3,6.9,12.3,10.9,18.1c8,11.5,17.6,22,28.2,31.4c10.7,9.4,22.3,17.6,34.4,24.8c12.3,7.3,25.1,13.6,38,19.2
   c2.5,1.1,5,2.1,7.5,3.1c3.1,1.2,6.2,2.5,9.3,3.8c4.1,1.7,8.3,3.5,12.4,5.3c6.2,2.7,12.3,5.5,18.4,8.6c12.1,6.1,23.9,13.2,35.2,21.2
   c11.1,7.9,21.7,16.7,31.4,26.5c9.6,9.7,18.4,20.3,26.3,31.6c7.8,11.3,14.7,23.3,20.5,36c5.9,12.7,10.7,26,14.6,39.6
   c3.9,13.7,6.8,27.8,8.9,42.1c1,7.1,1.9,14.3,2.5,21.5c0.3,3.6,0.5,7.1,0.7,10.7c0.1,1.7,0.1,3.4,0.2,5.1c0,0.8,0,1.7,0,2.5
   c0,14.1-1.4,28.2-4.1,41.8c-2.7,13.6-6.8,26.9-12.1,39.5c-2.7,6.3-5.6,12.5-8.9,18.5c-1.6,3-3.3,5.9-5,8.8
   c-1.8,3-3.7,5.9-5.7,8.7c-3.9,5.6-8.2,11-12.7,16c-4.6,5.1-9.5,9.9-14.7,14.4c-10.5,9-22.3,16.6-35.1,22.1
   c-12.8,5.6-26.7,9.1-41.2,10.5c-7.3,0.7-14.7,0.8-22.1,0.3c-7.4-0.5-14.8-1.5-22.1-3.2c-14.6-3.3-28.7-9-41.7-16.8
   c-13-7.8-25-17.6-35.3-29.5c-10.3-11.9-19-25.7-25.4-41c-6.4-15.3-10.7-32.1-12-49.8c-0.3-4.5-0.5-9-0.5-13.6c0-0.5,0-1,0-1.5
   c0.1-6.6,0.6-13.2,1.4-19.7c1.7-12.9,4.8-25.7,9.5-38c4.6-12.3,10.8-24.2,18.3-35.3c7.5-11.1,16.4-21.4,26.5-30.9
   c5-4.7,10.4-9.2,16-13.3c5.6-4.2,11.5-8.1,17.5-11.8c12.1-7.4,25-13.7,38.2-19.1c13.3-5.4,27-10,40.6-14.1
   c6.9-2.1,13.8-4,20.6-5.8c6.9-1.8,13.8-3.5,20.5-5.1c13.5-3.3,26.8-6.4,39.3-9.5c12.6-3.1,24.4-6.1,35.4-9.2
   c21.9-6.1,40.2-12.5,53.7-19.3c13.5-6.8,22.3-14,25.9-22.2c1.8-4.1,2.2-8.4,1.2-13c-0.9-4.6-3.2-9.5-6.6-14.4
   c-3.5-4.9-8.1-9.9-13.9-14.6c-5.7-4.7-12.5-9.3-20.2-13.5c-7.7-4.2-16.4-8.1-25.8-11.6c-4.7-1.7-9.5-3.4-14.5-4.9
   c-5-1.5-10.1-3-15.3-4.3c-10.5-2.7-21.4-4.9-32.6-6.6c-11.2-1.7-22.8-3-34.6-3.7c-11.8-0.8-23.9-1-36.1-0.7
   c-12.3,0.3-24.6,1.2-37,2.7c-12.4,1.5-24.9,3.6-37.3,6.3c-12.5,2.7-24.9,6-37.2,10c-12.3,4-24.5,8.6-36.5,13.9
   c-12,5.3-23.8,11.2-35.3,17.8c-11.5,6.5-22.7,13.7-33.5,21.6c-10.8,7.9-21.3,16.4-31.2,25.7c-10,9.3-19.4,19.3-28.2,30
   c-4.4,5.3-8.7,10.8-12.7,16.5c-4,5.7-7.9,11.6-11.5,17.7c-7.3,12.2-13.8,25.2-19.4,38.9c-5.5,13.7-10.1,28-13.8,42.8
   c-3.6,15-6.3,30.4-8,46.3c-1.7,15.9-2.4,32.2-2,48.7c0.3,16.5,1.8,33.3,4.3,50.2c2.6,16.9,6.2,33.9,11,50.7
   c4.8,16.8,10.8,33.4,17.9,49.6c7.1,16.2,15.3,32,24.6,47.3c0.6,0.9,1.1,1.9,1.7,2.8c0.6,0.9,1.1,1.9,1.7,2.8c2.2,3.8,4.5,7.5,6.8,11.2
   c2.3,3.7,4.7,7.4,7.1,11c4.9,7.3,9.9,14.5,15.2,21.4c5.3,7,10.7,13.8,16.4,20.4c2.9,3.3,5.8,6.6,8.8,9.8c3,3.2,6.1,6.3,9.2,9.4
   c6.3,6.1,12.8,12,19.5,17.6c6.7,5.6,13.7,11,20.8,16.1c3.6,2.6,7.2,5.1,10.9,7.5c3.7,2.4,7.4,4.7,11.2,7c7.6,4.6,15.5,8.8,23.5,12.8
   c8,4,16.2,7.7,24.6,11.1c16.7,6.9,34,12.5,51.6,16.9c17.6,4.3,35.6,7.3,53.6,8.8c9,0.8,18,1.1,27.1,1c9-0.1,18-0.7,27-1.6
   c15-1.5,29.9-4.1,44.6-7.8c14.7-3.6,29.1-8.3,43.1-13.8c14-5.6,27.6-12.1,40.6-19.6c13-7.5,25.5-15.9,37.2-25.2
   c5.9-4.6,11.5-9.5,16.9-14.5c5.4-5.1,10.6-10.4,15.5-15.9c9.8-11,18.7-22.9,26.4-35.5c7.7-12.6,14.3-25.9,19.6-39.8
   c5.3-13.9,9.3-28.4,11.8-43.3c2.5-15,3.6-30.4,3-46.1c-0.5-16-2.7-32.2-6.6-48.4c-3.9-16.3-9.5-32.5-17.1-48.2
   c-7.6-15.7-17.1-30.8-28.6-45c-11.5-14.3-24.9-27.5-39.8-39.6c-7.5-6-15.3-11.7-23.4-17.1c-8.1-5.4-16.6-10.4-25.1-15.2
   c-17.1-9.6-34.8-18.1-52.6-25.3c-17.8-7.2-35.9-13.1-53.7-17.7c-17.9-4.6-35.6-7.8-52.7-9.7c-8.5-0.9-16.9-1.6-25.2-1.8
   c-8.2-0.3-16.4-0.2-24.3,0.2c-7.9,0.3-15.7,1-23.1,1.9c-7.5,0.9-14.7,2-21.5,3.4c-13.7,2.7-26.1,6.3-37.3,10.6
   c-11.1,4.3-21.1,9.3-30,14.8c-8.9,5.5-16.7,11.5-23.4,17.8c-6.7,6.3-12.3,12.9-17,19.6c-9.4,13.4-15.2,27.1-18.4,40.6
   c-1.6,6.8-2.5,13.5-2.8,20.2c-0.3,6.7,0,13.3,0.8,19.9c0.8,6.6,2.1,13.1,3.9,19.5c1.8,6.5,4,12.9,6.6,19.1c5.3,12.6,12.2,24.7,20.6,36.2
   c8.4,11.5,18.4,22.2,29.7,32.2c11.3,10,24,19.1,37.6,27.3c13.6,8.2,28.2,15.3,43.3,21.5c15.1,6.2,30.7,11.4,46.5,15.5
   c15.8,4.1,31.8,7.1,47.6,9c15.8,1.9,31.5,2.6,46.5,2.3c7.5-0.2,14.9-0.6,22.1-1.3c7.2-0.7,14.2-1.8,21-3.1c13.6-2.7,26.5-6.6,38-11.8
   c11.5-5.1,21.7-11.5,30-18.8c8.3-7.3,14.8-15.5,19.4-24.4c4.6-8.9,7.2-18.5,7.9-28.5c0.3-5,0.2-10.1-0.3-15.2c-0.5-5.1-1.4-10.3-2.6-15.4
   c-2.5-10.3-6.5-20.5-12-30.3c-5.5-9.9-12.3-19.4-20.3-28.3c-8-8.9-17.1-17.2-27-24.6c-9.9-7.5-20.5-14.1-31.4-19.9
   c-10.9-5.8-22.1-10.7-33.2-14.7c-11.1-4-22.1-7.1-32.7-9.3c-5.3-1.1-10.5-2-15.5-2.6c-5-0.6-9.9-1.1-14.5-1.3
   c-4.6-0.2-9.1-0.2-13.3,0c-4.2,0.2-8.2,0.6-12,1.1c-7.6,1-14.5,2.5-20.9,4.6c-6.4,2.1-12.2,4.8-17.7,8c-5.5,3.2-10.6,7-15.5,11.3
   c-9.7,8.6-18,19.3-25.3,31.9c-7.3,12.6-13.5,27.1-18.9,43.3c-5.4,16.2-9.9,34.2-13.7,53.7c-3.8,19.5-6.9,40.6-9.4,63.1
   c-2.5,22.5-4.5,46.5-6.1,71.6c-0.8,12.6-1.5,25.3-2,38.3c-0.3,6.4-0.5,12.9-0.7,19.4c-0.2,6.5-0.4,13-0.6,19.5
   c-0.1,3.3-0.2,6.6-0.2,9.9c-0.1,3.3-0.1,6.6-0.2,10c-0.1,6.6-0.2,13.3-0.2,19.9c0,3.3,0,6.7,0,10c0,3.3-0.1,6.7-0.1,10
   c0,3.3,0,6.7,0,10c0,3.3,0,6.7,0,10c0,3.3,0,6.7,0,10c0,3.3,0,6.7,0,10c0,3.3,0,6.7,0,10c0,3.3,0,6.7,0,10c0,3.3,0,6.7,0,10
   c0,3.3,0,6.7,0,10c0,3.3,0,6.7,0,10c0,3.3,0,6.7,0,10c0,3.3,0,6.7,0,10c0,3.3,0,6.7,0,10c0,3.3,0,6.7,0,10c0,3.3,0,6.7,0,10
   c0,3.3,0,6.7,0,10c0,3.3,0,6.7,0,10c0,3.3,0,6.7,0,10c0,3.3,0,6.7,0,10c0,3.3,0,6.7,0,10c0,3.3,0,6.7,0,10c0,3.3,0,6.7,0,10
   c0,3.3,0,6.7,0,10c0,3.3,0,6.7,0,10c0,0.5,0,0.9,0,1.4c-0.1,2.5-1.1,4.8-2.8,6.4c-1.7,1.6-4,2.4-6.4,2.4c-0.5,0-1,0-1.5-0.1
   c-2.5-0.3-4.8-1.4-6.4-3.1c-1.6-1.7-2.5-4-2.5-6.5c0-0.5,0-1,0.1-1.5c0-3.3,0-6.7,0-10c0-3.3,0-6.7,0-10c0-3.3,0-6.7,0-10
   c0-3.3,0-6.7,0-10c0-3.3,0-6.7,0-10c0-3.3,0-6.7,0-10c0-3.3,0-6.7,0-10c0-3.3,0-6.7,0-10c0-3.3,0-6.7,0-10c0-3.3,0-6.7,0-10
   c0-3.3,0-6.7,0-10c0-3.3,0-6.7,0-10c0-3.3,0-6.7,0-10c0-3.3,0-6.7,0-10c0-3.3,0-6.7,0-10c0-3.3,0-6.7,0-10c0-3.3,0-6.7,0-10
   c0-3.3,0-6.7,0-10c0-3.3,0-6.7,0-10c0-3.3,0-6.7,0-10c0-3.3,0-6.7,0-10c0-3.3,0-6.7,0-10c0-6.6,0.1-13.3,0.2-19.9
   c0-3.3,0.1-6.7,0.2-10c0.1-3.3,0.1-6.6,0.2-9.9c0.2-6.5,0.4-13,0.6-19.5c0.2-6.4,0.4-12.9,0.7-19.4c0.5-12.9,1.2-25.7,2-38.3
   c1.6-25.1,3.6-49.1,6.1-71.6c2.5-22.5,5.6-43.6,9.4-63.1c3.8-19.5,8.3-37.4,13.7-53.7c5.4-16.2,11.6-30.7,18.9-43.3
   c7.3-12.6,15.5-23.3,25.3-31.9c4.9-4.3,10-8.1,15.5-11.3c5.5-3.2,11.3-5.9,17.7-8c6.3-2.1,13.2-3.6,20.9-4.6c3.8-0.5,7.8-0.9,12-1.1
   c4.2-0.2,8.6-0.2,13.3,0c4.7,0.2,9.5,0.7,14.5,1.3c5,0.6,10.2,1.5,15.5,2.6c10.7,2.2,21.6,5.3,32.7,9.3c11.1,4,22.3,8.9,33.2,14.7
   c10.9,5.8,21.5,12.4,31.4,19.9c9.9,7.5,19,15.8,27,24.6c8,8.9,14.9,18.4,20.3,28.3c5.5,9.9,9.5,20,12,30.3c1.2,5.1,2.1,10.3,2.6,15.4
   c0.5,5.1,0.6,10.2,0.3,15.2c-0.6,10-3.3,19.6-7.9,28.5c-4.6,8.9-11.1,17.1-19.4,24.4c-8.3,7.3-18.5,13.7-30,18.8
   c-11.5,5.1-24.4,9-38,11.8c-6.8,1.3-13.8,2.4-21,3.1c-7.2,0.7-14.6,1.1-22.1,1.3c-15,0.3-30.7-0.4-46.5-2.3c-15.9-1.9-31.8-4.9-47.6-9
   c-15.8-4.1-31.4-9.3-46.5-15.5c-15.1-6.2-29.7-13.3-43.3-21.5c-13.6-8.2-26.3-17.3-37.6-27.3c-11.3-10-21.3-20.7-29.7-32.2
   c-8.4-11.5-15.4-23.6-20.6-36.2c-2.6-6.3-4.8-12.7-6.6-19.1c-1.8-6.4-3.1-12.9-3.9-19.5c-0.8-6.6-1.1-13.2-0.8-19.9
   c0.3-6.7,1.2-13.4,2.8-20.2c3.2-13.5,9-27.3,18.4-40.6c4.7-6.7,10.3-13.3,17-19.6c6.6-6.3,14.5-12.3,23.4-17.8
   c8.9-5.5,18.9-10.5,30-14.8c11.1-4.3,23.5-7.9,37.3-10.6c6.9-1.4,14-2.5,21.5-3.4c7.5-0.9,15.2-1.6,23.1-1.9
   c7.9-0.3,16.1-0.5,24.3-0.2c8.3,0.3,16.6,0.9,25.2,1.8c17.1,1.9,34.8,5.1,52.7,9.7c17.9,4.6,35.9,10.5,53.7,17.7
   c17.8,7.2,35.5,15.7,52.6,25.3c8.6,4.8,17,9.9,25.1,15.2c8.1,5.4,15.9,11.1,23.4,17.1c14.9,12.1,28.3,25.4,39.8,39.6
   c11.5,14.3,21,29.3,28.6,45c7.6,15.7,13.2,31.9,17.1,48.2c3.9,16.3,6.1,32.5,6.6,48.4c0.6,15.7-0.6,31.1-3,46.1
   c-2.5,14.9-6.5,29.4-11.8,43.3c-5.4,13.9-11.9,27.2-19.6,39.8c-7.7,12.6-16.6,24.5-26.4,35.5c-4.9,5.5-10.1,10.8-15.5,15.9
   c-5.4,5.1-11.1,9.9-16.9,14.5c-11.7,9.3-24.2,17.7-37.2,25.2c-13,7.4-26.6,13.9-40.6,19.6c-14,5.5-28.4,10.2-43.1,13.8
   c-14.7,3.7-29.6,6.3-44.6,7.8c-9,0.9-18,1.5-27,1.6c-9,0.1-18-0.3-27.1-1c-18-1.5-36-4.5-53.6-8.8c-17.6-4.3-34.8-10-51.6-16.9
   c-8.4-3.4-16.6-7.1-24.6-11.1c-8-4-15.8-8.3-23.5-12.8c-3.8-2.3-7.5-4.6-11.2-7c-3.7-2.4-7.3-4.9-10.9-7.5c-7.1-5.1-14-10.4-20.8-16.1
   c-6.7-5.6-13.3-11.5-19.5-17.6c-3.1-3-6.2-6.2-9.2-9.4c-3-3.2-5.9-6.5-8.8-9.8c-5.7-6.6-11.1-13.5-16.4-20.4c-5.3-7-10.3-14.1-15.2-21.4
   c-2.4-3.6-4.8-7.3-7.1-11c-2.3-3.7-4.6-7.4-6.8-11.2c-0.6-0.9-1.1-1.9-1.7-2.8c-0.6-0.9-1.1-1.9-1.7-2.8c-9.3-15.3-17.5-31.1-24.6-47.3
   c-7.1-16.2-13.1-32.8-17.9-49.6c-4.8-16.8-8.4-33.8-11-50.7c-2.6-16.9-4-33.7-4.3-50.2c-0.3-16.5,0.3-32.8,2-48.7
   c1.7-15.9,4.3-31.3,8-46.3c3.6-14.9,8.2-29.2,13.8-42.8c5.5-13.7,12-26.7,19.4-38.9c3.6-6.1,7.4-12,11.5-17.7
   c4-5.7,8.3-11.2,12.7-16.5c8.8-10.7,18.2-20.7,28.2-30c10-9.3,20.4-17.8,31.2-25.7c10.9-7.9,22-15.1,33.5-21.6
   c11.5-6.5,23.3-12.4,35.3-17.8c12-5.3,24.2-9.9,36.5-13.9c12.3-3.9,24.7-7.3,37.2-10c12.4-2.7,24.9-4.8,37.3-6.3
   c12.3-1.5,24.7-2.3,37-2.7c12.2-0.3,24.3-0.1,36.1,0.7c11.8,0.8,23.4,2,34.6,3.7c11.2,1.7,22.1,3.9,32.6,6.6c5.2,1.3,10.3,2.8,15.3,4.3
   c5,1.5,9.9,3.2,14.5,4.9c9.4,3.5,18.1,7.4,25.8,11.6c7.7,4.2,14.5,8.8,20.2,13.5c5.7,4.7,10.3,9.7,13.9,14.6c3.4,4.9,5.7,9.8,6.6,14.4
   c1,4.6,0.6,8.9-1.2,13c-3.6,8.2-12.4,15.4-25.9,22.2c-13.5,6.8-31.9,13.1-53.7,19.3c-11,3-22.8,6.1-35.4,9.2
   c-12.5,3.1-25.8,6.2-39.3,9.5c-6.8,1.6-13.7,3.3-20.5,5.1c-6.9,1.8-13.8,3.7-20.6,5.8c-13.6,4.1-27.3,8.7-40.6,14.1
   c-13.3,5.4-26.1,11.6-38.2,19.1c-6,3.6-11.9,7.6-17.5,11.8c-5.7,4.2-11,8.6-16,13.3c-10.1,9.4-19,19.7-26.5,30.9
   c-7.5,11.1-13.6,23-18.3,35.3c-4.6,12.3-7.8,25.1-9.5,38c-0.8,6.5-1.3,13.1-1.4,19.7c0,0.5,0,1,0,1.5c0,4.5,0.2,9.1,0.5,13.6
   c1.3,17.7,5.6,34.5,12,49.8c6.4,15.3,15.1,29.1,25.4,41c10.3,11.9,22.3,21.7,35.3,29.5c13,7.8,27.1,13.5,41.7,16.8
   c7.3,1.6,14.7,2.7,22.1,3.2c7.4,0.5,14.8,0.4,22.1-0.3c14.5-1.4,28.3-4.9,41.2-10.5c12.8-5.6,24.7-13.1,35.1-22.1
   c5.2-4.5,10.1-9.3,14.7-14.4c4.5-5,8.8-10.4,12.7-16c2-2.8,3.9-5.7,5.7-8.7c1.7-2.9,3.4-5.8,5-8.8c3.2-6,6.2-12.2,8.9-18.5
   c5.3-12.6,9.4-25.9,12.1-39.5c2.7-13.6,4.1-27.7,4.1-41.8c0-0.8,0-1.7,0-2.5c0-1.7-0.1-3.4-0.2-5.1c-0.1-3.6-0.4-7.1-0.7-10.7
   c-0.6-7.2-1.5-14.4-2.5-21.5c-2.1-14.3-5-28.4-8.9-42.1c-3.9-13.7-8.7-27-14.6-39.6c-5.8-12.7-12.6-24.7-20.5-36
   c-7.9-11.3-16.7-21.9-26.3-31.6c-9.7-9.7-20.3-18.6-31.4-26.5c-11.3-8-23.1-15.1-35.2-21.2c-6-3-12.2-5.8-18.4-8.6
   c-4.1-1.8-8.3-3.6-12.4-5.3c-3.1-1.3-6.2-2.5-9.3-3.8c-2.5-1-5-2-7.5-3.1c-12.9-5.5-25.7-11.9-38-19.2c-12.1-7.2-23.7-15.4-34.4-24.8
   c-10.7-9.4-20.2-19.8-28.2-31.4c-4.1-5.8-7.7-11.8-10.9-18.1c-6.5-12.5-11.3-25.8-14.3-39.6c-2.3-10.9-3.5-22-3.5-33.2
   c0-10.1,1-20.2,3-29.9c5.6-26.8,18.6-49.4,36.5-66.1c17.8-16.6,40.7-26.7,65-27.2c0.6,0,1.2,0,1.8,0c16.7,0,32.3,4.2,45.8,12.1
   c3.4,2,6.6,4.2,9.7,6.5c3.1,2.4,6,4.9,9,7.4c1.4,1.3,2.9,2.6,4.4,3.9c1.5,1.4,3,2.7,4.5,4.1c3,2.7,6,5.4,9.1,8.1
   c9.5,8.2,19.4,16.1,29.6,23.6c11.4,8.3,23.2,16.2,35.4,23.7c12.3,7.5,25,14.6,38,21.2c13.1,6.6,26.5,12.8,40.2,18.5
   c13.8,5.7,27.9,10.9,42.3,15.7c14.5,4.7,29.3,8.6,44.2,11.8c15,3.2,30.2,5.6,45.6,6.9c7.6,0.7,15.4,1,23.2,1c4.5,0,9.1-0.1,13.6-0.4
   c1.4-0.1,2.9-0.2,4.6-0.2c10.2,0,24.7,2.7,38.5,7.5c20.8,7.3,39.7,20.4,46.3,37.1c3.3,8.4,3.3,17.7,0,27.9c-3.3,10.2-9.8,21.4-18.9,33.3
   c-9.1,11.9-20.9,24.6-34.8,37.9c-13.9,13.3-30,27.2-47.2,41.5c-8.6,7.1-17.4,14.3-26.5,21.5c-9,7.2-18.3,14.5-27.7,21.7
   c-37.4,29-77.4,57.4-117.8,83.9c-40.5,26.5-81.6,51.1-121.3,72.9c-39.8,21.8-78.1,40.8-113.2,56.3c-17.5,7.8-34.3,14.7-50.2,20.8
   c-4,1.5-7.9,3-11.8,4.4c-3.9,1.4-7.7,2.8-11.5,4.1c-7.6,2.6-15,5.1-22.2,7.4c-7.1,2.3-14.1,4.5-20.8,6.6c-6.7,2-13.2,3.9-19.4,5.7
   c-3.1,0.9-6.1,1.7-9,2.5c-2.9,0.8-5.8,1.5-8.5,2.3c-2.7,0.7-5.4,1.4-8,2c-2.6,0.6-5.1,1.2-7.5,1.8c-4.9,1.1-9.4,2-13.7,2.9
   c-4.2,0.8-8.2,1.5-11.8,2.1c-3.6,0.5-6.8,1-9.8,1.4c-2.9,0.3-5.6,0.6-8,0.8c-2.4,0.2-4.5,0.3-6.4,0.4c-1.9,0.1-3.5,0.1-4.8,0.1
   c-1.3,0-2.4-0.1-3.1-0.1c-0.8-0.1-1.2-0.1-1.3-0.1c0,0,0.5,0,1.3-0.1c0.8-0.1,1.9-0.1,3.1-0.1c1.3,0,2.9,0,4.8,0.1
   c1.9,0.1,4,0.2,6.4,0.4c2.4,0.2,5.1,0.4,8,0.8c2.9,0.3,6.2,0.8,9.8,1.4c3.6,0.6,7.6,1.3,11.8,2.1c4.3,0.8,8.8,1.8,13.7,2.9
   c2.4,0.5,5,1.1,7.5,1.8c2.6,0.6,5.3,1.3,8,2c2.8,0.7,5.6,1.5,8.5,2.3c2.9,0.8,5.9,1.6,9,2.5c6.2,1.8,12.7,3.7,19.4,5.7
   c6.7,2,13.7,4.2,20.8,6.6c7.2,2.3,14.5,4.7,22.2,7.4c3.8,1.3,7.6,2.7,11.5,4.1c3.9,1.4,7.8,2.9,11.8,4.4c16,6,32.7,12.9,50.2,20.8
   c35.1,15.6,73.5,34.6,113.2,56.3c39.8,21.8,80.8,46.4,121.3,72.9c40.5,26.5,80.4,54.9,117.8,83.9c9.4,7.3,18.7,14.5,27.7,21.7
   c9.1,7.2,17.9,14.4,26.5,21.5c17.3,14.3,33.3,28.2,47.2,41.5c13.9,13.3,25.6,26,34.8,37.9c9.1,11.9,15.6,23.1,18.9,33.3
   c3.3,10.2,3.3,19.5,0,27.9c-6.6,16.7-25.5,29.8-46.3,37.1c-13.8,4.8-28.3,7.5-38.5,7.5c-1.4,0-2.6-0.1-3.8-0.1
   c-0.3,0-0.5,0-0.8-0.1c-4.5-0.3-9-0.4-13.6-0.4c-7.8,0-15.5-0.4-23.2-1c-15.4-1.3-30.6-3.7-45.6-6.9c-14.9-3.2-29.7-7.2-44.2-11.8
   c-14.4-4.7-28.5-9.9-42.3-15.7c-13.7-5.7-27.1-11.9-40.2-18.5c-13-6.6-25.7-13.7-38-21.2c-12.2-7.5-24-15.3-35.4-23.7
   c-11.4-8.3-22.3-17-31.8-26.2c-9.5-9.1-18.3-18.8-26.2-28.8c-7.9-10-14.8-20.4-20.9-30.9c-3-5.3-5.8-10.6-8.3-16
   c-2.5-5.4-4.8-10.9-6.9-16.3c-4.1-10.9-7.4-21.9-9.8-32.6c-2.5-10.7-4.1-21.1-5-31.2c-0.9-10.1-1.1-19.7-0.8-28.9
   c0.3-9.2,1-17.9,2.1-26.1c2.2-16.3,6.1-30.9,11.4-43.3c2.7-6.2,5.7-11.9,9.2-17c3.5-5.1,7.3-9.7,11.5-13.8c4.2-4.1,8.9-7.6,13.9-10.7
   c5-3.1,10.4-5.6,16.1-7.7c5.7-2.1,11.6-3.7,17.7-4.9c6.1-1.2,12.5-1.9,18.8-2.3c6.3-0.4,12.7-0.4,19.1-0.1c6.3,0.3,12.7,1,18.9,1.9
   c6.3,0.9,12.6,2.1,18.8,3.6c6.2,1.5,12.3,3.2,18.2,5.2c6,2,11.9,4.2,17.7,6.6c5.8,2.4,11.5,5,17,7.8c5.5,2.8,10.9,5.8,16.1,9
   c5.2,3.2,10.2,6.6,15,10.1c4.8,3.5,9.4,7.2,13.8,11c4.4,3.8,8.5,7.8,12.5,11.9c3.9,4.1,7.6,8.3,11,12.7c3.4,4.3,6.6,8.8,9.5,13.3
   c2.9,4.5,5.5,9.1,7.9,13.8c2.4,4.7,4.5,9.5,6.3,14.3c1.8,4.8,3.3,9.7,4.5,14.5c1.1,4.8,2,9.7,2.5,14.5c0.3,2.4,0.5,4.8,0.5,7.2
   c0.1,2.4,0,4.8-0.2,7.1c-0.3,4.7-1.1,9.4-2.3,13.9c-1.3,4.5-3.1,8.9-5.3,13.2c-2.3,4.3-5,8.4-8.2,12.4c-3.1,4-6.7,7.8-10.6,11.5
   c-3.9,3.7-8.2,7.2-12.8,10.5c-4.6,3.3-9.6,6.5-14.8,9.4c-10.5,5.9-22.1,11-34.5,15.3c-12.4,4.3-25.6,7.8-39.2,10.5
   c-13.7,2.7-27.8,4.5-42.2,5.4c-14.4,0.9-29.1,0.9-43.8,0c-14.7-0.9-29.4-2.8-43.9-5.6c-14.5-2.8-28.9-6.5-42.9-11
   c-14-4.6-27.6-10-40.8-16.2c-13.2-6.3-25.9-13.3-38-21.2c-6-3.9-11.8-8-17.4-12.2c-5.6-4.2-11-8.6-16.1-13.2
   c-10.2-9.1-19.6-18.9-28.1-29.4c-8.5-10.5-16.1-21.6-22.8-33.3c-6.7-11.7-12.5-23.9-17.4-36.6c-4.9-12.7-8.9-25.8-12.1-39.3
   c-3.1-13.5-5.5-27.3-7.1-41.2c-0.8-7-1.4-13.9-1.8-21c-0.2-3.5-0.3-7-0.4-10.5c-0.1-1.7-0.1-3.5-0.1-5.2c0-1.7,0-3.5,0-5.2
   c0.1-6.9,0.3-13.9,0.8-20.8c0.5-7,1.2-13.9,2.1-20.9c1.8-13.9,4.5-27.8,8.2-41.4c3.7-13.6,8.2-27,13.7-40.1c5.5-13.1,11.9-25.9,19.3-38.3
   c7.4-12.4,15.8-24.3,25.1-35.6c9.3-11.3,19.6-22.1,30.7-32.2c11.1-10.1,23.1-19.5,35.8-28.2c12.7-8.7,26.2-16.6,40.3-23.6
   c14.1-7.1,28.8-13.3,43.9-18.6c15.1-5.3,30.7-9.7,46.6-13.1c15.9-3.4,32.2-5.9,48.6-7.2c16.5-1.4,33.1-1.7,49.8-0.9
   c15.5,0.7,31,2.4,46.2,5c15.2,2.6,30.2,6.2,44.8,10.8c14.6,4.5,28.8,10,42.6,16.4c13.8,6.3,27.1,13.6,39.8,21.7
   c12.7,8.1,24.9,17.1,36.3,26.9c11.4,9.8,22.1,20.4,32,31.6c9.9,11.2,18.9,23.1,27.1,35.5c8.1,12.4,15.3,25.4,21.5,38.8
   c6.2,13.4,11.5,27.2,15.7,41.3c4.2,14.1,7.5,28.5,9.7,43c2.2,14.6,3.3,29.3,3.3,44.1c0,14.5-1.2,29-3.6,43.3
   c-2.3,14.3-5.9,28.3-10.5,42c-4.6,13.7-10.4,27-17.2,39.7c-6.8,12.8-14.7,25-23.6,36.5c-8.9,11.5-18.8,22.3-29.6,32.3
   c-10.8,10-22.4,19.2-34.9,27.4c-12.5,8.2-25.8,15.5-39.7,21.6c-13.9,6.1-28.5,11.1-43.6,14.9c-15.1,3.7-30.7,6.2-46.5,7.4
   c-15.8,1.2-31.8,1.1-47.8-0.3c-16-1.4-32-4.2-47.6-8.1c-15.6-4-30.9-9.2-45.6-15.6c-14.8-6.4-29-13.9-42.5-22.4
   c-13.5-8.5-26.3-18-38.3-28.4c-12-10.4-23.2-21.6-33.5-33.6c-5.1-6-10-12.2-14.6-18.5c-4.6-6.3-9-12.8-13.1-19.4
   c-8.2-13.3-15.4-27.1-21.6-41.3c-6.2-14.3-11.4-29-15.4-44.1c-4-15.1-7-30.6-8.8-46.2c-1.8-15.7-2.4-31.6-1.8-47.4
   c0.6-15.9,2.5-31.7,5.7-47.4c3.2-15.7,7.6-31.2,13.3-46.3c5.7-15.1,12.7-29.9,20.8-44c8.2-14.1,17.6-27.7,28.1-40.5
   c10.5-12.8,22.1-24.8,34.6-35.8c12.6-11,26.1-21.1,40.3-30.1c14.2-9,29.2-17,44.7-23.7c15.5-6.7,31.6-12.2,48-16.3
   c16.4-4.1,33.1-7,49.9-8.5c16.8-1.5,33.8-1.7,50.5-0.5c16.8,1.2,33.4,3.8,49.5,7.7c16.2,3.9,31.8,9.2,46.7,15.7
   c14.9,6.5,29.1,14.3,42.2,23.1c13.2,8.8,25.4,18.6,36.4,29.4c11,10.7,20.9,22.3,29.4,34.5c8.5,12.2,15.7,25.1,21.5,38.4
   c5.8,13.3,10.2,27,13.2,40.8c3,13.9,4.5,27.9,4.5,41.8c0,13.8-1.5,27.5-4.6,40.7c-3.1,13.3-7.6,26.1-13.6,38.4
   c-6,12.3-13.3,23.9-22,34.8c-8.7,10.9-18.6,21-29.6,30.2c-11,9.2-23.2,17.6-36.3,24.9c-13.1,7.3-27.1,13.6-41.9,18.7
   c-14.8,5.1-30.3,9-46.3,11.5c-16,2.6-32.6,3.8-49.4,3.8c-16.8,0-33.7-1.3-50.5-3.8c-16.8-2.6-33.5-6.4-49.9-11.6
   c-16.4-5.2-32.4-11.6-47.8-19.3c-15.4-7.6-30.2-16.5-44.1-26.5c-13.9-10-27-21.2-39-33.5c-12-12.2-22.9-25.5-32.5-39.6
   c-9.6-14.1-17.9-29.1-24.7-44.7c-6.9-15.6-12.2-31.9-16-48.7c-3.8-16.8-6-34-6.6-51.5c-0.6-17.5,0.4-35.3,3.1-53
   c2.7-17.7,7-35.3,12.9-52.4c5.9-17.2,13.4-34,22.4-50.3c4.5-8.1,9.4-16.1,14.6-23.9c5.2-7.8,10.8-15.4,16.7-22.7
   c5.9-7.3,12.1-14.4,18.7-21.3c6.5-6.9,13.4-13.5,20.5-19.8c14.2-12.6,29.4-24.2,45.3-34.6c15.9-10.4,32.6-19.6,49.7-27.4
   c17.2-7.8,34.9-14.3,52.9-19.2c18-5,36.3-8.6,54.7-10.7c18.4-2.1,36.9-2.6,55.2-1.6c18.4,1,36.6,3.6,54.4,7.7
   c17.8,4.1,35.2,9.7,52,16.9c16.8,7.1,33,15.7,48.2,25.7c15.3,10,29.6,21.3,42.9,33.9c13.2,12.6,25.4,26.5,36.2,41.3
   c10.8,14.9,20.2,30.8,28.2,47.5c7.9,16.7,14.4,34.1,19.4,52.1c5,18,8.6,36.6,10.6,55.5c2,18.9,2.4,38.1,1.2,57.3
   c-1.1,19.2-3.9,38.5-8.2,57.5c-4.3,19-10.2,37.8-17.7,56.1c-7.5,18.3-16.4,36.1-26.9,53.2c-2.6,4.3-5.4,8.5-8.2,12.6
   c-2.8,4.2-5.7,8.3-8.7,12.3c-6,8.1-12.3,16-19,23.7c-6.7,7.7-13.7,15.1-21,22.3c-7.3,7.2-15,14.2-22.9,20.9
   c-7.9,6.7-16.1,13.2-24.5,19.4c-16.9,12.5-34.6,23.9-53,34.2c-18.4,10.3-37.4,19.5-56.9,27.5c-19.5,8-39.5,14.7-59.7,20.2
   c-20.2,5.5-40.7,9.8-61.3,12.7c-10.3,1.5-20.6,2.6-30.9,3.4c-10.3,0.8-20.7,1.2-31,1.2c-20.6,0-41.2-1.5-61.6-4.6
   c-20.3-3-40.5-7.6-60.1-13.6c-19.7-6-38.8-13.6-57.2-22.6c-18.4-9.1-36.1-19.5-52.9-31.3c-16.8-11.8-32.6-24.9-47.3-39.2
   c-14.7-14.3-28.3-29.8-40.7-46.2c-12.3-16.4-23.4-33.9-33-52.2c-9.7-18.3-17.9-37.4-24.6-57.1c-6.7-19.7-11.9-40-15.4-60.7
   c-3.6-20.8-5.5-41.9-5.9-63.3c-0.3-21.3,0.9-42.9,3.8-64.4c2.9-21.5,7.3-43,13.4-64.1c6.1-21.1,13.8-41.9,23.1-62
   c9.3-20.1,20.2-39.5,32.7-58c12.5-18.5,26.5-36.1,41.9-52.5c15.5-16.4,32.3-31.7,50.3-45.7c18-14,37.2-26.8,57.3-38
   c20.1-11.2,41.1-21,62.8-29.2c21.7-8.1,44-14.7,66.6-19.5c22.7-4.8,45.8-7.8,69-9.1c23.2-1.2,46.6-0.6,69.6,1.8
   c11.5,1.2,23,2.8,34.3,4.9c11.3,2.1,22.6,4.6,33.7,7.5c22.2,5.9,43.9,13.5,64.8,22.8c20.9,9.3,40.9,20.3,59.9,32.8
   c19,12.5,36.8,26.5,53.4,41.7c16.6,15.3,31.9,31.9,45.6,49.5c13.7,17.6,25.9,36.3,36.3,55.7c10.4,19.4,19.1,39.6,26,60.2
   c6.9,20.7,12,41.9,15.1,63.2c3.2,21.3,4.4,42.8,3.7,64.2c-0.7,21.4-3.4,42.8-8,63.7c-4.6,21-11.2,41.5-19.8,61.4
   c-8.5,19.9-19,39.1-31.2,57.3c-12.2,18.2-26.2,35.3-41.8,51.2c-15.6,15.9-32.7,30.5-51,43.6c-18.3,13.1-37.9,24.8-58.3,34.7
   c-20.5,10-41.8,18.3-63.7,24.9c-21.9,6.6-44.3,11.5-67,14.5c-22.7,3.1-45.6,4.3-68.4,3.8c-22.8-0.5-45.6-2.8-67.9-6.8
   c-22.3-3.9-44.2-9.6-65.4-16.8c-21.2-7.3-41.8-16.2-61.4-26.6c-19.7-10.5-38.4-22.5-56-35.9c-17.6-13.4-34-28.2-49.2-44.1
   c-15.2-16-29.1-33.1-41.5-51.1c-12.5-18-23.5-37-32.9-56.6c-9.4-19.7-17.2-40.1-23.3-60.9C54.8,459.5,49.4,439,45.7,418.2
   c-3.7-20.8-5.9-41.8-6.5-62.9c-0.6-21.1,0.4-42.2,3-63.1c2.7-20.9,6.9-41.7,12.7-62c5.8-20.3,13.2-40.2,22.2-59.4
   c9-19.2,19.5-37.8,31.4-55.5c11.9-17.7,25.3-34.4,40-49.9c14.7-15.5,30.7-29.8,47.7-42.8c17-13,35-24.7,53.9-34.8
   c18.9-10.2,38.6-18.9,58.9-26c20.3-7.1,41.2-12.6,62.5-16.5c21.3-3.9,42.9-6.1,64.6-6.8c21.7-0.6,43.5,0.4,65,3c21.5,2.6,42.8,6.7,63.5,12.4
   c20.7,5.7,40.9,12.9,60.3,21.5c19.4,8.6,38,18.7,55.6,30c17.6,11.3,34.2,23.9,49.6,37.5c15.4,13.6,29.6,28.4,42.4,44.1
   c12.8,15.7,24.3,32.4,34.2,49.8c10,17.4,18.4,35.6,25.3,54.2c6.9,18.6,12.2,37.7,15.9,57c3.7,19.3,5.7,38.9,6.1,58.5
   c0.4,19.6-0.9,39.3-3.9,58.7c-3,19.4-7.7,38.6-14.1,57.3c-6.4,18.7-14.5,36.9-24.1,54.3c-9.7,17.4-20.9,34-33.6,49.5
   c-12.6,15.5-26.8,30-42.2,43.1c-15.4,13.2-32.1,25.1-49.8,35.7c-17.7,10.6-36.3,19.9-55.6,27.7c-19.3,7.8-39.3,14.1-59.7,18.9
   c-20.4,4.8-41.2,8-62.1,9.7c-21,1.7-42.1,1.8-63-0.1c-20.9-1.9-41.7-5.4-62-10.7c-20.3-5.2-40.2-12.1-59.3-20.6
   c-19.1-8.5-37.5-18.7-54.8-30.3c-17.3-11.7-33.6-24.8-48.7-39.3c-15.1-14.4-29-30.3-41.4-47.2c-12.4-16.9-23.4-34.9-32.7-53.7
   c-9.4-18.8-17.1-38.3-23.1-58.4c-6-20.1-10.3-40.7-12.7-61.5c-2.5-20.8-3.1-41.8-2-62.7c1.1-20.9,3.9-41.7,8.4-62
   c4.5-20.3,10.7-40.2,18.5-59.4c7.8-19.2,17.2-37.7,28.1-55.2c10.9-17.5,23.3-34,37-49.2c13.7-15.2,28.7-29.2,44.8-41.8
   c16.1-12.6,33.2-23.8,51.2-33.4c18-9.6,36.8-17.7,56.2-24.2c19.4-6.5,39.3-11.4,59.5-14.6c20.2-3.2,40.7-4.6,61.1-4.5
   c20.4,0.1,40.8,1.8,60.7,5c20,3.2,39.6,8,58.5,14.3c18.9,6.3,37.1,14.1,54.6,23.3c17.5,9.2,34.1,19.8,49.7,31.6
   c15.6,11.8,30.1,24.9,43.3,39C657.7,125.4,670,140.7,680.9,157c10.9,16.3,20.4,33.6,28.3,51.6c8,18,14.3,36.7,18.9,55.8
   c4.6,19.1,7.4,38.6,8.5,58.1c1.1,19.6,0.5,39.1-1.9,58.5c-2.4,19.4-6.5,38.5-12.3,57.1c-5.8,18.6-13.3,36.7-22.5,54
   c-9.2,17.3-20,33.9-32.3,49.4c-12.3,15.5-26.1,30-41.2,43.1c-15.1,13.1-31.6,25-49.1,35.5c-17.5,10.5-36,19.5-55.2,27
   c-19.2,7.5-39.1,13.4-59.4,17.7c-20.3,4.3-40.9,7-61.6,8.1c-20.7,1.1-41.4,0.5-61.8-1.8c-20.4-2.3-40.6-6.3-60.1-11.9
   c-19.5-5.6-38.4-12.9-56.5-21.6c-18.1-8.7-35.4-19-51.8-30.6c-16.3-11.7-31.7-24.6-45.9-38.9c-14.2-14.2-27.1-29.7-38.7-46.2
   c-11.6-16.5-21.8-34-30.5-52.3c-8.7-18.3-15.9-37.3-21.5-56.8c-5.6-19.5-9.6-39.5-11.9-59.7c-2.3-20.2-3-40.5-2-60.7
   c1-20.2,3.7-40.3,8-60c4.3-19.7,10.3-39.1,17.8-57.9c7.5-18.8,16.7-37,27.3-54.2c10.6-17.3,22.6-33.7,35.9-49
   c13.3-15.3,27.9-29.5,43.5-42.4c15.7-12.9,32.4-24.5,50-34.7c17.6-10.2,36-19,55.1-26.2c19.1-7.2,38.9-12.8,59-16.7
   c20.1-3.9,40.5-6.1,60.9-6.7c10.2-0.3,20.4-0.2,30.5,0.3c10.1,0.5,20.2,1.4,30.2,2.8c19.9,2.7,39.7,7,58.9,12.8
   c19.2,5.8,37.9,13.2,55.8,22c17.9,8.9,35.1,19.3,51.2,31c16.2,11.7,31.3,24.8,45.3,39c13.9,14.2,26.6,29.7,37.8,46.2
   c11.2,16.5,21,34,29.2,52.2c8.2,18.2,14.8,37.2,19.7,56.6c5,19.4,8.2,39.3,9.8,59.3c1.6,20,1.5,40.1-0.2,60
   c-1.7,19.9-5.1,39.7-10.2,59c-5.1,19.3-11.9,38.2-20.3,56.5c-8.4,18.3-18.5,35.9-30.1,52.6c-11.6,16.7-24.6,32.4-38.9,47
   c-14.3,14.6-29.8,28.1-46.3,40.2c-16.5,12.1-34,22.9-52.3,32.1c-18.3,9.3-37.4,17-57.1,23.1c-19.7,6.1-39.9,10.5-60.3,13.3
   c-20.4,2.8-41,3.9-61.5,3.3c-20.5-0.5-40.9-2.7-60.9-6.6c-20-3.8-39.5-9.3-58.5-16.4c-19-7-37.4-15.7-55-25.7
   c-17.6-10-34.3-21.3-50-33.8c-15.7-12.5-30.3-26.2-43.6-41c-13.3-14.8-25.4-30.6-36-47.3c-10.7-16.8-19.9-34.4-27.5-52.8
   c-7.7-18.4-13.8-37.5-18.2-57c-4.5-19.5-7.3-39.4-8.4-59.3c-1.1-19.9-0.4-39.9,1.9-59.6c2.3-19.7,6.4-39.2,12.1-58.2
   c5.7-19,13.1-37.5,22.1-55.3c9.1-17.8,19.7-34.9,31.8-50.9c12.1-16,25.7-31,40.5-44.6c14.8-13.6,30.9-26,48-37
   c17.1-11,35.1-20.7,53.8-28.8c18.8-8.1,38.2-14.7,58.1-19.6c19.9-4.9,40.3-8.1,60.7-9.7c20.5-1.6,41-1.5,61.3,0.2
   c10.1,0.9,20.2,2.2,30.1,4c10,1.8,19.8,4,29.5,6.7c19.5,5.4,38.5,12.4,56.8,21c18.4,8.6,35.9,19,52.3,30.8
   c16.5,11.8,31.8,25.1,45.8,39.6c14,14.6,26.6,30.3,37.7,47.2c11.1,16.8,20.8,34.6,28.8,53.2c8,18.6,14.4,38.1,19,58.1
   c4.6,20,7.4,40.4,8.4,60.8c1,20.5,0.2,40.9-2.4,61c-2.7,20.1-7.1,40-13.3,59.3c-6.2,19.3-14.1,38.1-23.7,56
   c-9.6,17.9-20.8,34.9-33.5,50.7c-12.7,15.8-26.9,30.4-42.4,43.7c-15.5,13.3-32.2,25.2-49.9,35.7c-17.7,10.5-36.4,19.5-55.7,27
   c-19.4,7.5-39.4,13.3-59.8,17.5c-20.4,4.2-41.1,6.7-61.7,7.5c-20.7,0.8-41.3-0.1-61.6-2.7c-20.3-2.6-40.3-7-59.7-13
   c-19.4-6-38.3-13.7-56.4-22.9c-18.1-9.2-35.4-19.9-51.7-31.9c-16.3-12-31.5-25.4-45.5-39.9c-14-14.5-26.8-30.2-38.1-46.9
   c-11.4-16.7-21.2-34.3-29.5-52.8c-8.3-18.5-15-37.7-20-57.5c-4.9-19.8-8.2-40.1-9.6-60.5c-1.5-20.4-1.2-40.8,0.9-61
   c2.1-20.2,5.9-40.1,11.5-59.6c5.6-19.5,12.9-38.5,21.9-56.7c9-18.2,19.6-35.7,31.7-52.1c12.1-16.4,25.7-31.7,40.5-45.8
   c14.8-14.1,30.8-26.9,47.8-38.3c17-11.4,35-21.4,53.7-30c18.7-8.6,38.1-15.6,58-21c19.9-5.4,40.2-9.1,60.7-11.2
   c20.5-2.1,41.1-2.5,61.5-1.3c20.5,1.2,40.7,4.1,60.4,8.7c19.8,4.6,39.1,10.8,57.6,18.6c18.6,7.8,36.4,17.3,53.3,28.2
   c16.9,10.9,32.8,23.3,47.5,36.9c14.7,13.7,28.1,28.6,40.2,44.7c12.1,16.1,22.8,33.3,31.9,51.4c9.1,18.1,16.7,37.1,22.5,56.6
   c5.8,19.6,10,39.7,12.4,60.1c2.4,20.4,3,41,1.9,61.4c-1.2,20.5-4.1,40.8-8.8,60.7c-4.7,19.9-11.1,39.4-19.3,58.1
   c-8.2,18.7-18.1,36.7-29.6,53.6c-11.5,16.9-24.5,32.8-38.9,47.5c-14.4,14.7-30.1,28.2-46.9,40.4c-16.8,12.2-34.7,23-53.4,32.3
   c-18.7,9.2-38.3,16.9-58.3,22.9c-20.1,6-40.6,10.4-61.3,13c-20.8,2.6-41.7,3.4-62.6,2.5c-20.9-1-41.7-3.7-62-8.1
   c-20.3-4.4-40.1-10.5-59.3-18.1c-19.1-7.7-37.6-16.9-55.2-27.5c-17.6-10.6-34.2-22.7-49.7-36c-15.5-13.3-29.7-27.9-42.6-43.6
   c-12.9-15.7-24.4-32.4-34.4-50.1c-10-17.7-18.6-36.2-25.5-55.5c-7-19.3-12.4-39.2-16.2-59.5c-3.8-20.3-5.9-41-6.3-61.8
   c-0.4-20.8,1-41.5,4.1-62c3.1-20.5,8-40.6,14.8-60.1c6.7-19.5,15.2-38.4,25.5-56.4c10.3-18,22.2-35.1,35.8-51
   c13.5-15.9,28.6-30.6,44.9-44c16.3-13.4,33.8-25.5,52.3-36c18.5-10.5,38-19.5,58.1-26.8c20.2-7.3,40.9-12.9,62-16.6
   c21.1-3.7,42.5-5.6,63.8-5.6c21.3,0,42.6,1.9,63.5,5.6c10.5,1.9,20.8,4.3,31.1,7.1c10.2,2.9,20.3,6.2,30.1,10
   c9.9,3.8,19.5,8,28.9,12.7c9.4,4.7,18.5,9.8,27.3,15.3c8.9,5.5,17.4,11.5,25.7,17.8c8.3,6.3,16.2,13.1,23.8,20.2
   c15.2,14.3,29,30.3,41.2,47.6c12.2,17.3,22.7,35.9,31.3,55.3c8.7,19.4,15.5,39.7,20.4,60.4c4.9,20.7,7.9,41.9,8.9,63.1
   c1.1,21.2,0.2,42.3-2.6,63.2c-2.7,20.9-7.4,41.5-13.9,61.5c-6.5,20-14.9,39.3-25.2,57.7c-10.3,18.4-22.3,35.9-35.9,52.2
   c-13.6,16.3-28.8,31.3-45.3,44.9c-16.5,13.6-34.3,25.8-53.1,36.4c-18.8,10.6-38.7,19.7-59.3,27c-20.6,7.3-41.9,13-63.4,16.9
   c-21.6,3.9-43.4,6-65.2,6.3c-21.8,0.3-43.5-1.3-64.8-4.7c-21.3-3.4-42.2-8.8-62.4-15.9c-20.2-7.1-39.7-16-58.2-26.6
   c-18.5-10.5-36-22.7-52.3-36.3c-16.3-13.6-31.4-28.7-45-45.1c-13.6-16.4-25.7-34-36.2-52.7c-10.5-18.7-19.3-38.4-26.4-58.9
   c-7.1-20.5-12.3-41.7-15.6-63.3c-3.4-21.7-4.9-43.6-4.6-65.6c0.3-21.9,2.5-43.8,6.5-65.3c4-21.5,9.9-42.7,17.7-63.1
   c7.7-20.5,17.2-40.2,28.5-59c11.2-18.8,24.2-36.5,38.7-53.1c14.5-16.5,30.5-31.9,47.8-45.8c8.6-7,17.6-13.6,26.8-19.8
   c9.3-6.2,18.8-12,28.7-17.4c9.8-5.3,19.9-10.3,30.3-14.7c10.3-4.4,21-8.4,31.8-11.9c10.9-3.5,21.9-6.6,33.1-9.1
   c11.3-2.5,22.7-4.5,34.2-6c22.9-2.9,46.1-3.9,69.1-3c23,0.9,45.9,3.7,68.1,8.4c22.3,4.7,44,11.4,64.9,19.9
   c20.9,8.6,40.8,19.1,59.6,31.4c18.8,12.3,36.3,26.4,52.5,42.1c16.1,15.7,30.9,33,44,51.5c13.1,18.6,24.5,38.4,34.3,59.1
   c9.8,20.8,17.8,42.5,24,64.9c6.2,22.4,10.5,45.5,13,68.9c2.5,23.4,3.1,47,1.9,70.6c-1.2,23.5-4.2,47-9.1,70.1
   c-4.9,23.1-11.8,45.8-20.6,67.7c-8.7,22-19.4,43.2-31.9,63.3c-12.5,20.1-26.9,39.1-42.9,56.7c-16,17.6-33.6,33.7-52.5,48.2
   c-18.9,14.5-39.1,27.4-60.4,38.5c-21.3,11.1-43.7,20.5-66.9,27.9c-23.2,7.5-47.1,13-71.5,16.6c-24.4,3.6-49.1,5.2-73.8,4.7
   c-24.6-0.5-49.2-3-73.3-7.6c-24.1-4.6-47.7-11.2-70.4-19.8c-22.8-8.6-44.7-19.1-65.6-31.6c-20.9-12.4-40.6-26.8-59-42.9
   c-18.4-16.1-35.3-33.9-50.7-53.1c-15.4-19.2-29.1-39.9-41-61.7c-11.9-21.9-21.9-44.9-29.9-68.7c-8-23.9-13.9-48.4-17.7-73.5
   c-3.8-25.1-5.4-50.6-5-76.1c0.5-25.5,3-51,7.5-76c4.6-25,11.1-49.7,19.6-73.6c8.6-23.9,19.1-47.1,31.6-69.2
   c12.5-22.1,26.9-43.1,43-62.6c16.1-19.5,33.9-37.7,53.2-54.2c19.3-16.5,40.1-31.5,62.2-44.5c22.1-13.1,45.4-24.3,69.7-33.5
   c24.3-9.2,49.5-16.5,75.3-21.5c25.8-5,52.1-7.9,78.7-8.6c26.5-0.7,53.2,0.7,79.5,4.3c26.4,3.6,52.5,9.4,77.9,17.3
   c25.4,7.9,50.1,18,73.7,30.3c23.7,12.3,46.2,26.7,67.5,42.9c21.2,16.3,41,34.5,59.1,54.4c18.1,19.9,34.5,41.4,48.8,64.2
   c14.4,22.8,26.6,47,36.6,72.1c10,25.1,17.7,51.2,22.9,77.8c5.3,26.6,8.1,53.7,8.4,80.9c0.3,27.2-2,54.3-6.8,81
   c-4.8,26.7-12.2,52.9-22.1,78.3c-9.8,25.4-22.1,49.9-36.7,73C693.1,268,693.1,268,693.1,268z"/>
</svg>