<?xml version="1.0" encoding="UTF-8" standalone="no"?>
<svg xmlns="http://www.w3.org/2000/svg" viewBox="0 0 800 800">
  <path fill="#000000" d="M631.1,267.7c-35.3-26.6-92-49.8-166.9-54.9c-3.1-0.3-6.1-0.4-9.2-0.6c-3-0.1-5.8-0.6-8.4-1.8
    c-2.8-1.3-5.1-3.3-7.1-5.7c-0.4-0.5-0.8-0.9-1.2-1.4c-7.9-9.3-14.1-19.8-18.9-31.2c-3-7.2-5.4-14.7-7.5-22.3
    c-2.6-9.5-3.9-19.3-5.1-29.1c-0.7-5.9-1.5-11.9-2.9-17.7c-1.9-7.9-4.6-15.5-8.2-22.8c-3.5-7.2-7.9-13.9-13-20.1
    c-8.9-10.9-19.9-19.3-32.5-25.7c-12.3-6.3-25.2-10.7-38.7-13.2c-11.7-2.2-23.5-3.1-35.4-3.1h-3.6c-12.2,0-24.4,1.4-36.5,2.3
    c-16.8,2.6-32.7,7.1-48.5,11.5c-28.6,11.6-54.2,27.4-76.1,48.4c-5.2,5-10.1,10.3-14.6,15.9c-5.2,6.4-9.9,13.1-14.1,20.2
    c-4.7,8-8.8,16.3-12.3,24.9c-3.3,8.3-6.2,16.7-8.7,25.3c-2.5,8.7-4.4,17.6-5.9,26.6c-1.4,8.9-2.4,17.9-2.9,26.9
    c-0.4,8.3-0.5,16.6-0.2,24.9c0.3,8.2,1.1,16.3,2.3,24.4c1.3,8.5,3.1,16.9,5.3,25.1c2.4,8.8,5.3,17.4,8.8,25.9
    c3.7,9.1,8,17.9,12.7,26.5c4.8,8.9,10.2,17.5,15.9,25.8c5.8,8.4,12.1,16.4,18.7,24.2c6.5,7.5,13.5,14.8,21,21.8
    c7.5,6.9,15.2,13.5,23.1,19.8c10.1,5.9,35.3,22.5,46.7,30.2c3.3,2.2,6.5,4.5,9.6,6.9c7.4,5.8,14.4,12.1,20.9,18.9
    c6.3,6.6,12.1,13.7,17.4,21c5.4,7.6,10.4,15.5,15.1,23.6c4.6,8,8.9,16.2,12.8,24.5c3.9,8.3,7.5,16.7,10.8,25.2
    c3.4,8.5,6.5,17.1,9.4,25.8c2.3,6.7,4.4,13.5,6.4,20.3c1.7,5.9,2,17.5-6.2,17.5c-2.7,0-5.1-1.3-6.9-3.9
    c-0.5-1.4-2.7-9.2-4.1-13.8c-2.9-9-6.1-17.9-9.7-26.6c-3.3-8.1-7-16.1-11.1-24c-4-7.7-8.3-15.2-12.9-22.5
    c-5-8-10.5-15.6-16.5-23c-5.9-7.3-12.2-14.2-19-20.8c-6.5-6.4-13.4-12.2-20.7-17.8c-3.7-2.8-7.4-5.5-11.3-8.1
    c-7.5-4.9-15.3-9.4-23.3-13.5c-16.7-8.5-32.6-18.2-47.1-29.7c-4.4-3.4-8.5-7.1-12.4-10.9c-4.4-4.3-8.6-8.9-12.5-13.7
    c-4.3-5.3-8.3-10.7-12-16.4c-2-3-3.9-6.1-5.7-9.3c-4.2-7.6-7.8-15.4-10.6-23.5c-3-8.7-5.2-17.4-6.4-26.4
    c-0.8-5.9-1.3-11.8-1.3-17.8c0-6,0.3-12,1.2-17.9c0.9-6.3,2.3-12.6,4.1-18.8c1.9-6.4,4.3-12.7,7.2-18.7c0.8-1.6,1.6-3.2,2.4-4.8
    c4.3-8.3-1.3-15.7-7.4-10.9c-3.9,3.1-9.3,25.4-9.8,60.8c0.3,6.8,1.1,13.5,2.6,20.2c1.6,7.1,3.8,14,6.8,20.7
    c2.8,6.5,6.2,12.8,10.2,18.7c0.6,0.9,1.2,1.8,1.9,2.6c0.8,1,1.7,2.1,2.6,3.1c2.5,2.8,5.1,5.4,7.9,7.9c1.2,1.1,2.5,2.1,3.8,3
    c0.8,0.6,1.6,1.2,2.5,1.7c0.8,0.5,1.5,0.9,2.3,1.4c2.5,1.4,5,2.8,7.6,4c3.3,1.6,6.6,3.1,10,4.6c5.9,2.5,11.9,4.7,18,6.7
    c4.3,1.4,8.6,2.7,13,3.8c4,1.1,7.9,2.1,11.9,3c5.9,1.3,11.9,2.4,17.9,3.3c10,1.5,20.1,2.4,30.3,2.8c5.3,0.2,10.6,0.2,15.9,0
    c7.2-0.3,14.4-0.9,21.5-1.9c7.3-1,14.5-2.3,21.6-4c6.7-1.6,13.2-3.5,19.6-5.8c3.2-1.2,6.4-2.4,9.5-3.8c1.6-0.7,3.2-1.4,4.7-2.2
    c2.8-1.4,5.5-3,8.1-4.7c3.6-2.3,7-5,10-7.9c3.8-3.8,6.8-8,9.1-12.6c2.3-4.6,3.9-9.6,4.8-14.6c0.7-3.9,1-7.9,1-12
    c0-3.8-0.3-7.6-0.8-11.4c-0.6-4-1.5-8-2.8-11.9c-1.4-4.3-3.2-8.5-5.3-12.5c-2.2-4.1-4.7-8-7.6-11.7c-2.8-3.7-6-7.1-9.5-10.2
    c-3.4-3.1-7-6.1-11-8.7c-3.8-2.5-7.8-4.8-12-6.9c-4.3-2.1-8.8-3.9-13.4-5.5c-4.9-1.7-9.9-3.2-15-4.5c-5.4-1.3-10.9-2.5-16.5-3.4
    c-5.9-1-11.8-1.8-17.8-2.4c-6.5-0.6-13-1.2-19.5-1.6c-6.5-0.4-13-0.8-19.6-1.2c-31.2-1.7-62.7-1.1-94,0.7
    c-8.8,0.1-14.5-8.8-4.9-8.8c24.5,0.1,49,0.9,73.7,2.9c6.5,0.5,13,1.1,19.6,1.7c6.5,0.6,13,1.4,19.5,2.2
    c5.9,0.8,11.8,1.7,17.8,2.8c5.6,1.1,11.1,2.3,16.5,3.9c5.2,1.5,10.2,3.2,15.1,5.2c4.6,1.9,9.1,4,13.4,6.4
    c4.2,2.3,8.2,4.9,12,7.8c4,3,7.7,6.3,11.1,9.9c3.5,3.6,6.7,7.4,9.6,11.5c2.9,4.2,5.5,8.6,7.7,13.2c2.2,4.6,4,9.3,5.4,14.2
    c1.3,4.5,2.3,9.1,2.9,13.7c0.6,4.3,0.9,8.6,0.9,13c0,4.6-0.3,9.2-1,13.7c-0.9,5.9-2.5,11.5-4.9,16.9c-5.2,11.9-14.6,21-26.1,27.1
    c-3.1,1.6-6.2,3-9.6,4.3c-6.4,2.6-13,4.8-19.7,6.6c-7.1,1.9-14.3,3.4-21.6,4.5c-7.2,1.1-14.4,1.8-21.6,2.1
    c-5.3,0.2-10.6,0.2-15.9,0c-10.2-0.4-20.3-1.4-30.3-3.1c-6-1-12-2.2-17.9-3.7c-4-0.9-7.9-2-11.9-3.3c-4.4-1.3-8.7-2.7-13-4.3
    c-6.1-2.2-12.1-4.7-18-7.5c-3.4-1.6-6.7-3.3-10-5.1c-2.6-1.4-5.1-2.9-7.6-4.5c-0.8-0.5-1.6-1-2.3-1.5c-0.9-0.6-1.7-1.2-2.6-1.8
    c-1.4-1-2.7-2.1-3.9-3.3c-3-2.6-5.7-5.6-8.2-8.8c-1-1.1-1.9-2.3-2.8-3.6c-0.7-1-1.4-2-2-3c-4.1-6.8-7.6-13.9-10.5-21.3
    c-3-7.6-5.3-15.5-6.9-23.5c-1.5-7.6-2.4-15.3-2.7-23c-0.3-8.4,0.3-16.7,1.7-24.9c1.4-8.3,3.8-16.3,7-24.1
    c1.7-4.2,3.6-8.3,5.9-12.3c12.9-22.5,33.8-40.5,60.2-50.2c9-3.3,18.3-5.8,27.7-7.7c11.6-2.3,23.3-4,35.1-5.1
    c17.9-1.7,36-2.1,54-1.2c8.3,0.4,16.6,1,24.9,1.8c13.1,1.3,26.1,3.3,39,6.1c13.7,3,27.1,7.1,40.1,12.3
    c7.6,3.1,15.1,6.5,22.3,10.4c10.9,5.8,21.4,12.5,31.4,19.9c9.9,7.5,19,15.8,27,24.6c8,8.9,14.9,18.4,20.3,28.3
    c5.5,9.9,9.5,20,12,30.3c1.2,5.1,2.1,10.3,2.6,15.4c0.5,5.1,0.6,10.2,0.3,15.2c-0.6,10-3.3,19.6-7.9,28.5
    c-4.6,8.9-11.1,17.1-19.4,24.4c-8.3,7.3-18.5,13.7-30,18.8c-11.5,5.1-24.4,9-38,11.8c-6.8,1.3-13.8,2.4-21,3.1
    c-7.2,0.7-14.6,1.1-22.1,1.3c-15,0.3-30.7-0.4-46.5-2.3c-15.9-1.9-31.8-4.9-47.6-9c-15.8-4.1-31.4-9.3-46.5-15.5
    c-15.1-6.2-29.7-13.3-43.3-21.5c-13.6-8.2-26.3-17.3-37.6-27.3c-11.3-10-21.3-20.7-29.7-32.2c-8.4-11.5-15.4-23.6-20.6-36.2
    c-2.6-6.3-4.8-12.7-6.6-19.1c-1.8-6.4-3.1-12.9-3.9-19.5c-0.8-6.6-1.1-13.2-0.8-19.9c0.3-6.7,1.2-13.4,2.8-20.2
    c3.2-13.5,9-27.3,18.4-40.6c4.7-6.7,10.3-13.3,17-19.6c6.6-6.3,14.5-12.3,23.4-17.8c8.9-5.5,18.9-10.5,30-14.8
    c11.1-4.3,23.5-7.9,37.3-10.6c6.9-1.4,14-2.5,21.5-3.4c7.5-0.9,15.2-1.6,23.1-1.9c7.9-0.3,16.1-0.5,24.3-0.2
    c8.3,0.3,16.6,0.9,25.2,1.8c17.1,1.9,34.8,5.1,52.7,9.7c17.9,4.6,35.9,10.5,53.7,17.7c17.8,7.2,35.5,15.7,52.6,25.3
    c8.6,4.8,17,9.9,25.1,15.2c8.1,5.4,15.9,11.1,23.4,17.1c30.1,24.4,53.2,54.2,67.4,84.6c4.2,9,7.5,18.1,9.7,27.1
    c4.4,18.1,4.6,35.7,0,50.6c-9.2,29.7-36.1,51.6-61.3,63.3c-12.6,5.9-25.1,9.8-34.6,11.6c-9.5,1.8-17.9,2.1-26.1,2.1
    c-16.4,0-32.5-1.8-48.2-4.3c-7.8-1.3-15.6-2.9-23.3-4.8c-7.7-1.8-15.3-4-22.9-6.4c-7.6-2.4-15.1-5.1-22.6-8.1
    c-7.5-3-14.9-6.3-22.3-9.8c-7.3-3.5-14.6-7.3-21.7-11.4c-7.1-4.1-14.1-8.4-21-13c-6.9-4.6-13.6-9.4-20.2-14.5
    c-6.6-5.1-13-10.5-19.3-16.1c-6.3-5.6-12.3-11.5-18.2-17.6c-5.9-6.1-11.6-12.4-17.1-19c-2.7-3.3-5.4-6.6-8-10
    c-1.3-1.7-2.6-3.4-3.8-5.1c-1.3-1.7-2.5-3.4-3.7-5.2c-2.5-3.5-4.9-7-7.3-10.6c-2.4-3.6-4.7-7.2-7-10.9c-2.3-3.7-4.5-7.5-6.7-11.3
    c-2.2-3.8-4.3-7.6-6.4-11.5c-2.1-3.9-4.1-7.8-6.1-11.7c-2-3.9-3.9-7.9-5.7-12c-1.8-4-3.6-8.1-5.3-12.2c-1.7-4.1-3.4-8.2-5-12.4
    c-1.6-4.2-3.1-8.4-4.6-12.6c-1.5-4.2-2.9-8.5-4.3-12.8c-1.4-4.3-2.7-8.6-4-12.9c-1.3-4.3-2.5-8.7-3.7-13c-1.2-4.4-2.3-8.7-3.4-13.1
    c-2.2-8.8-4.2-17.6-6.1-26.5c-1.9-8.9-3.6-17.8-5.2-26.7c-1.6-8.9-3-17.9-4.3-26.9c-1.3-9-2.5-18-3.5-27.1
    c-1-9-1.9-18.1-2.7-27.1c-0.8-9.1-1.5-18.1-2-27.2c-0.5-9.1-0.9-18.2-1.2-27.3c-0.3-9.1-0.4-18.2-0.5-27.3
    c0-9.1,0.1-18.2,0.5-27.3c0.2-4.5,0.4-9.1,0.7-13.6c0.3-4.5,0.6-9.1,1-13.6c0.7-9,1.5-18.1,2.6-27.1c1-9,2.2-18,3.6-26.9
    c1.4-9,2.9-17.9,4.7-26.8c1.7-8.9,3.7-17.8,5.8-26.7c2.1-8.8,4.4-17.6,7-26.3c1.3-4.4,2.6-8.7,4-13c1.4-4.3,2.9-8.5,4.4-12.8
    c1.5-4.2,3.1-8.5,4.8-12.7c1.7-4.2,3.4-8.3,5.2-12.4c1.8-4.1,3.7-8.2,5.6-12.2c1.9-4,3.9-8,6-12c2-3.9,4.1-7.9,6.3-11.7
    c2.1-3.9,4.3-7.7,6.6-11.5c2.3-3.8,4.6-7.5,7-11.2c2.4-3.7,4.8-7.3,7.3-10.9c2.5-3.6,5-7.1,7.6-10.6c1.3-1.7,2.6-3.5,3.9-5.2
    c1.3-1.7,2.7-3.4,4-5.1c2.7-3.4,5.5-6.7,8.3-10c5.6-6.5,11.5-12.9,17.6-19c6.1-6.1,12.4-11.9,18.9-17.5c6.5-5.6,13.1-10.9,20-16
    c6.8-5.1,13.9-9.8,21.1-14.3c7.2-4.5,14.5-8.7,22-12.7c7.5-3.9,15.1-7.5,22.9-10.8c7.8-3.3,15.7-6.3,23.7-9c8-2.7,16.1-5.1,24.3-7.3
    c8.2-2.1,16.5-3.9,24.9-5.5c8.3-1.6,16.8-2.8,25.2-3.8c8.5-1,17-1.7,25.5-2.2c8.5-0.5,17.1-0.7,25.6-0.7c8.5,0,17.1,0.3,25.6,0.8
    c8.5,0.5,17,1.3,25.5,2.3c8.5,1,16.9,2.3,25.3,3.9c8.4,1.6,16.7,3.5,24.9,5.7c8.2,2.2,16.3,4.6,24.3,7.4c8,2.8,15.9,5.8,23.7,9.2
    c7.8,3.3,15.4,7,22.9,10.9c7.5,3.9,14.8,8.1,22,12.7c7.2,4.6,14.2,9.3,21,14.4c6.8,5.1,13.5,10.5,19.9,16.1
    c6.4,5.6,12.7,11.5,18.7,17.6c6,6.1,11.9,12.5,17.5,19.1c2.8,3.3,5.5,6.7,8.2,10.1c1.3,1.7,2.7,3.4,4,5.1c1.3,1.7,2.6,3.5,3.9,5.2
    c2.5,3.5,5,7.1,7.5,10.7c2.4,3.6,4.8,7.2,7.1,10.9c2.3,3.7,4.6,7.5,6.8,11.3c2.2,3.8,4.3,7.6,6.4,11.5c2.1,3.9,4.1,7.8,6.1,11.8
    c2,3.9,3.9,7.9,5.8,12c1.9,4,3.7,8.1,5.5,12.2c1.8,4.1,3.5,8.3,5.1,12.5c1.6,4.2,3.2,8.4,4.7,12.7c1.5,4.3,2.9,8.5,4.3,12.8
    c1.4,4.3,2.7,8.6,3.9,13c2.5,8.7,4.8,17.5,6.9,26.4c2.1,8.8,4,17.7,5.7,26.7c1.7,8.9,3.3,17.9,4.6,26.9c1.4,9,2.6,18,3.6,27
    c1,9,1.9,18.1,2.5,27.1c0.7,9.1,1.2,18.1,1.6,27.2c0.4,9.1,0.6,18.2,0.8,27.3c0.1,9.1,0.1,18.2,0,27.3c-0.1,9.1-0.4,18.2-0.7,27.3
    c-0.4,9.1-0.8,18.1-1.4,27.2c-0.6,9.1-1.3,18.1-2.1,27.1c-0.8,9-1.7,18-2.7,27.1c-1,9-2.2,18-3.5,27c-1.3,9-2.7,18-4.3,26.9
    c-1.6,8.9-3.3,17.8-5.1,26.7c-1.9,8.9-3.9,17.7-6,26.5c-1.1,4.4-2.2,8.7-3.3,13.1c-1.2,4.3-2.4,8.7-3.6,13c-1.2,4.3-2.5,8.6-3.9,12.9
    c-1.4,4.3-2.8,8.5-4.2,12.8c-1.5,4.2-3,8.4-4.5,12.6c-1.6,4.2-3.2,8.3-4.9,12.4c-1.7,4.1-3.5,8.2-5.3,12.2c-1.8,4-3.7,8-5.7,12
    c-2,4-4,7.8-6,11.7c-2,3.9-4.2,7.7-6.3,11.5c-2.2,3.8-4.4,7.5-6.7,11.2c-2.3,3.7-4.7,7.4-7.1,10.9c-2.4,3.6-4.9,7.1-7.5,10.6
    c-1.3,1.7-2.5,3.5-3.8,5.2c-1.3,1.7-2.6,3.4-4,5.1c-2.7,3.3-5.5,6.7-8.3,10c-5.6,6.6-11.4,13-17.5,19.1c-6.1,6.1-12.4,12-19,17.6
    c-6.5,5.6-13.2,11-20,16.1c-6.9,5.1-13.9,9.9-21.1,14.4c-7.2,4.6-14.6,8.8-22.1,12.8c-7.5,3.9-15.2,7.6-23,11
    c-7.8,3.4-15.7,6.4-23.8,9.2c-8,2.7-16.2,5.2-24.4,7.4c-8.2,2.2-16.5,4.1-24.9,5.7c-8.4,1.6-16.9,2.9-25.4,3.9c-8.5,1-17,1.7-25.6,2.2
    c-8.5,0.5-17.1,0.8-25.6,0.8c-8.6,0-17.1-0.2-25.6-0.7c-8.5-0.5-17-1.2-25.5-2.2c-8.4-1-16.8-2.2-25.2-3.8
    c-8.4-1.6-16.7-3.4-24.9-5.5c-8.2-2.1-16.3-4.5-24.3-7.2c-8-2.7-15.9-5.7-23.6-9c-7.8-3.3-15.4-6.9-22.9-10.8
    c-7.5-3.9-14.8-8.1-21.9-12.6c-7.1-4.5-14.2-9.3-21-14.3c-6.8-5-13.4-10.4-19.9-16c-6.5-5.6-12.7-11.4-18.7-17.5
    c-6.1-6.1-11.9-12.5-17.4-19c-2.8-3.3-5.5-6.7-8.1-10c-1.3-1.7-2.6-3.4-3.9-5.1c-1.3-1.7-2.6-3.5-3.8-5.2c-2.5-3.5-5-7.1-7.4-10.6
    c-2.4-3.6-4.7-7.2-7-10.9c-2.3-3.7-4.5-7.5-6.7-11.3c-2.2-3.8-4.3-7.6-6.3-11.5c-2-3.9-4.1-7.8-6-11.8c-2-3.9-3.9-7.9-5.7-12
    c-1.9-4-3.7-8.1-5.4-12.2c-1.8-4.1-3.4-8.3-5.1-12.5c-1.6-4.2-3.1-8.4-4.6-12.7c-1.5-4.3-2.9-8.5-4.2-12.8c-1.3-4.3-2.6-8.6-3.9-13
    c-2.5-8.7-4.8-17.5-6.8-26.4c-2.1-8.8-4-17.7-5.7-26.7c-1.7-8.9-3.2-17.9-4.6-26.9c-1.3-9-2.5-18-3.5-27c-1-9-1.8-18.1-2.5-27.1
    c-0.7-9.1-1.2-18.1-1.5-27.2c-0.4-9.1-0.6-18.2-0.7-27.3c-0.1-9.1-0.1-18.2,0-27.3c0.2-9.1,0.4-18.2,0.8-27.3
    c0.3-9.1,0.8-18.1,1.4-27.2c0.6-9.1,1.3-18.1,2.1-27.2c0.8-9,1.8-18,2.8-27c1-9,2.2-18,3.6-26.9c1.3-9,2.8-17.9,4.4-26.9
    c1.6-8.9,3.4-17.8,5.3-26.6c1.9-8.9,4-17.7,6.2-26.5c1.1-4.4,2.2-8.7,3.4-13c1.2-4.3,2.4-8.6,3.7-12.9c1.3-4.3,2.6-8.5,4-12.8
    c1.4-4.3,2.9-8.5,4.4-12.7c1.5-4.2,3.1-8.3,4.8-12.4c1.7-4.1,3.5-8.2,5.3-12.2c1.9-4,3.8-8,5.7-12c2-3.9,4.1-7.8,6.2-11.7
    c2.1-3.9,4.3-7.7,6.5-11.5c2.2-3.8,4.5-7.5,6.9-11.2c2.3-3.7,4.8-7.3,7.2-10.9c2.5-3.6,5-7.1,7.6-10.6c1.3-1.7,2.6-3.4,3.9-5.2
    c1.3-1.7,2.6-3.4,4-5.1c2.7-3.3,5.5-6.7,8.4-10c5.7-6.6,11.6-13,17.7-19.1c6.1-6.1,12.5-12,19-17.6c6.5-5.6,13.3-10.9,20.2-16.1
    c6.9-5.1,14-9.8,21.3-14.3c7.3-4.5,14.7-8.8,22.2-12.7c7.5-3.9,15.2-7.5,23.1-10.9c7.9-3.3,15.8-6.3,23.9-9.1
    c8.1-2.7,16.3-5.1,24.5-7.3c8.3-2.1,16.6-3.9,25-5.5c8.4-1.6,16.9-2.8,25.4-3.8c8.5-1,17.1-1.7,25.6-2.2c8.6-0.5,17.1-0.7,25.7-0.7
    c8.6,0,17.1,0.2,25.7,0.8c8.5,0.5,17.1,1.2,25.6,2.3c8.5,1,16.9,2.3,25.4,3.9c8.4,1.6,16.8,3.5,25.1,5.7c8.3,2.2,16.4,4.6,24.5,7.4
    c8.1,2.8,16,5.8,23.9,9.2c7.8,3.4,15.5,7,23.1,10.9c7.6,3.9,15,8.2,22.2,12.8c7.2,4.6,14.3,9.4,21.2,14.5
    c6.9,5.1,13.6,10.5,20.1,16.2c6.5,5.6,12.8,11.5,18.9,17.7c6.1,6.2,12,12.6,17.7,19.2c2.8,3.3,5.6,6.7,8.3,10.1
    c1.4,1.7,2.7,3.4,4.1,5.2c1.3,1.7,2.6,3.5,3.9,5.3c2.6,3.5,5.1,7.1,7.6,10.7c2.4,3.6,4.9,7.3,7.2,11c2.3,3.7,4.6,7.5,6.9,11.3
    c2.2,3.8,4.4,7.7,6.5,11.6c2.1,3.9,4.2,7.9,6.2,11.8c2,4,3.9,8,5.8,12.1c1.9,4,3.7,8.1,5.4,12.3c1.8,4.1,3.4,8.3,5.1,12.5
    c1.6,4.2,3.1,8.5,4.6,12.8c1.5,4.3,2.9,8.6,4.3,12.9c1.4,4.3,2.6,8.7,3.9,13.1c2.5,8.8,4.8,17.6,6.9,26.5c2.1,8.9,4,17.8,5.7,26.8
    c1.7,9,3.2,18,4.5,27c1.3,9,2.4,18.1,3.4,27.1c1,9,1.8,18.1,2.4,27.2c0.6,9.1,1.1,18.2,1.4,27.3c0.3,9.1,0.4,18.2,0.4,27.3
    c0,9.1-0.2,18.2-0.5,27.3c-0.3,9.1-0.7,18.2-1.2,27.3c-0.5,9.1-1.1,18.1-1.9,27.2c-0.7,9.1-1.6,18.1-2.7,27.1
    c-1,9-2.2,18-3.5,27c-1.3,9-2.8,18-4.4,26.9c-1.6,8.9-3.4,17.8-5.3,26.7c-2,8.8-4,17.6-6.3,26.4c-1.1,4.4-2.3,8.7-3.5,13
    c-1.2,4.3-2.5,8.6-3.8,12.9c-1.3,4.3-2.7,8.5-4.1,12.8c-1.4,4.2-2.9,8.5-4.5,12.7c-1.5,4.2-3.2,8.3-4.9,12.4
    c-1.7,4.1-3.5,8.2-5.3,12.2c-1.9,4-3.8,8-5.8,11.9c-2,4-4.1,7.8-6.2,11.7c-2.1,3.8-4.3,7.7-6.5,11.4c-2.2,3.8-4.5,7.5-6.9,11.2
    c-2.3,3.7-4.8,7.3-7.2,10.9c-2.5,3.5-5,7.1-7.6,10.5c-1.3,1.7-2.6,3.5-3.9,5.2c-1.3,1.7-2.7,3.4-4,5c-2.8,3.3-5.6,6.7-8.4,9.9
    c-5.8,6.5-11.7,12.9-17.8,19c-6.1,6.1-12.5,11.9-19,17.4c-6.5,5.6-13.3,10.9-20.2,15.9c-6.9,5-14,9.8-21.3,14.2
    c-7.3,4.5-14.7,8.7-22.3,12.6c-7.6,3.9-15.3,7.5-23.1,10.8c-7.9,3.3-15.8,6.3-23.9,9c-8.1,2.7-16.3,5.1-24.5,7.2
    c-8.3,2.1-16.6,3.9-25,5.4c-8.4,1.6-16.9,2.8-25.4,3.8c-8.5,1-17.1,1.6-25.6,2.1c-8.6,0.5-17.1,0.7-25.7,0.7c-8.6,0-17.1-0.3-25.7-0.8
    c-8.5-0.5-17.1-1.3-25.6-2.3c-8.5-1-16.9-2.3-25.4-3.9c-8.4-1.6-16.8-3.5-25.1-5.7c-8.3-2.2-16.4-4.6-24.5-7.3
    c-8.1-2.8-16-5.8-23.9-9.1c-7.8-3.3-15.5-7-23.1-10.8c-7.6-3.9-15-8.1-22.2-12.7c-7.2-4.6-14.3-9.3-21.2-14.3
    c-6.9-5.1-13.6-10.4-20.1-16.1c-6.5-5.6-12.8-11.5-18.9-17.6c-6.1-6.1-12-12.5-17.7-19.1c-5.7-6.6-11.3-13.4-16.6-20.3
    c-5.3-7-10.4-14.1-15.2-21.4c-4.8-7.3-9.4-14.8-13.8-22.5c-4.3-7.6-8.4-15.4-12.3-23.3c-3.9-7.9-7.5-16-10.9-24.2
    c-3.4-8.2-6.6-16.5-9.5-25c-2.9-8.4-5.6-17-8.1-25.6c-2.5-8.6-4.7-17.4-6.8-26.2c-2-8.8-3.8-17.7-5.3-26.7
    c-1.5-8.9-2.8-18-3.9-27.1c-1.1-9.1-1.9-18.2-2.5-27.3c-0.6-9.1-0.9-18.3-1.1-27.4c-0.1-9.1,0-18.3,0.3-27.4
    c0.3-9.1,0.7-18.2,1.4-27.3c0.7-9.1,1.5-18.2,2.6-27.2c1-9.1,2.3-18.1,3.7-27.1c1.5-9,3.2-17.9,5.1-26.8c1.9-8.9,4-17.8,6.3-26.5
    c2.3-8.8,4.9-17.5,7.6-26.1c2.8-8.6,5.8-17.1,9.1-25.5c3.3-8.4,6.8-16.7,10.5-24.9c3.7-8.2,7.7-16.2,11.9-24.1
    c4.2-7.9,8.6-15.7,13.2-23.3c4.6-7.6,9.5-15.1,14.5-22.4c5-7.3,10.3-14.5,15.7-21.5c2.7-3.5,5.5-6.9,8.3-10.3
    c2.8-3.4,5.7-6.7,8.6-10c5.9-6.6,12-13,18.3-19.2c6.3-6.2,12.9-12.1,19.6-17.9c6.8-5.7,13.7-11.2,20.9-16.4
    c7.1-5.2,14.5-10.2,22-14.9c7.5-4.7,15.2-9.1,23.1-13.2c7.9-4.1,16-7.9,24.2-11.4c8.2-3.5,16.6-6.7,25.1-9.6c8.5-2.9,17.1-5.5,25.8-7.8
    c8.7-2.3,17.6-4.3,26.5-6c8.9-1.7,17.9-3.1,26.9-4.2c9-1.1,18.1-1.9,27.2-2.4c9.1-0.5,18.2-0.8,27.3-0.8c9.1,0,18.2,0.2,27.3,0.7
    c9.1,0.5,18.1,1.2,27.2,2.3c9,1,18,2.4,26.9,4c8.9,1.7,17.8,3.7,26.6,6c8.7,2.3,17.4,4.9,25.9,7.8c8.5,2.9,16.9,6.1,25.2,9.5
    c8.3,3.5,16.4,7.3,24.3,11.4c7.9,4.1,15.7,8.5,23.2,13.2c7.5,4.7,14.9,9.7,22,15c7.1,5.2,14,10.8,20.7,16.5c6.7,5.7,13.2,11.7,19.4,18
    c6.2,6.2,12.3,12.7,18,19.4c4.8,5.6,9.4,11.4,13.8,17.4c2.2,3,4.3,6,6.4,9c1,1.5,2.1,3,3.1,4.6c1,1.5,2,3.1,3,4.7
    c2,3.1,3.9,6.3,5.8,9.5c1.9,3.2,3.7,6.5,5.5,9.7c1.8,3.3,3.5,6.6,5.2,9.9c1.7,3.3,3.3,6.7,4.9,10c1.6,3.4,3.1,6.8,4.6,10.2
    c1.5,3.4,2.9,6.9,4.3,10.3c1.4,3.5,2.7,7,4,10.5c1.3,3.5,2.5,7.1,3.7,10.6c2.4,7.2,4.6,14.4,6.7,21.7c2,7.3,3.9,14.6,5.5,22
    c1.6,7.4,3.1,14.8,4.4,22.3c1.3,7.5,2.4,15,3.4,22.5c1,7.5,1.8,15.1,2.5,22.6c0.7,7.6,1.2,15.1,1.6,22.7c0.4,7.6,0.6,15.2,0.7,22.8
    c0.1,7.6,0,15.3-0.2,22.9c-0.2,7.6-0.6,15.3-1.1,22.9c-0.5,7.6-1.1,15.2-1.9,22.8c-0.8,7.6-1.7,15.2-2.7,22.7
    c-1,7.6-2.2,15.1-3.5,22.6c-1.3,7.5-2.7,15-4.3,22.4c-1.6,7.4-3.3,14.8-5.2,22.1c-1.9,7.3-4,14.6-6.3,21.8c-1.1,3.6-2.3,7.2-3.5,10.8
    c-1.2,3.6-2.5,7.1-3.8,10.6c-1.3,3.5-2.7,7-4.1,10.5c-1.4,3.5-2.9,7-4.4,10.4c-1.5,3.4-3.1,6.9-4.7,10.3c-1.6,3.4-3.3,6.8-5,10.1
    c-1.7,3.3-3.5,6.7-5.3,10c-1.8,3.3-3.7,6.6-5.6,9.8c-1.9,3.2-3.9,6.4-5.9,9.6c-1,1.6-2,3.1-3,4.7c-1,1.5-2.1,3.1-3.1,4.6
    c-2.1,3.1-4.3,6.1-6.5,9.1c-4.4,6-9.1,11.8-13.9,17.5c-11.6,13.3-24.2,25.9-38,37.6c-13.7,11.7-28.5,22.4-44.2,32.1
    c-15.7,9.7-32.3,18.3-49.6,25.8c-17.4,7.5-35.6,13.8-54.2,19c-18.7,5.2-38,9.3-57.5,12.2c-19.6,2.9-39.5,4.6-59.4,5.1
    c-19.9,0.5-39.9-0.3-59.6-2.3c-19.8-2-39.3-5.3-58.4-9.9c-19.2-4.6-37.9-10.4-56.1-17.3c-18.3-7-36-15.2-53-24.5
    c-17-9.3-33.4-19.8-48.8-31.1c-15.5-11.4-29.9-23.8-43.3-37c-13.4-13.2-25.8-27.3-36.9-42.1c-11.1-14.8-21-30.5-29.5-46.7
    c-8.5-16.2-15.7-33-21.5-50.2c-5.8-17.3-10.1-35-13-53c-2.9-18-4.5-36.3-4.5-54.6c0-18.3,1.6-36.7,4.5-54.8c2.9-18.1,7.3-35.9,13.1-53.2
    c5.8-17.3,13-34.2,21.6-50.5c8.6-16.3,18.5-32,29.7-46.9c11.2-14.9,23.6-29,37.1-42.3c13.5-13.3,28.1-25.7,43.6-37.2
    c15.5-11.4,32-21.9,49.3-31.2c17.2-9.3,35.1-17.6,53.5-24.5c18.3-7,37.1-12.8,56.3-17.4c19.2-4.5,38.7-7.9,58.5-9.9
    c19.8-2,39.8-2.7,59.7-2.3c19.9,0.5,39.8,2.2,59.4,5.1c19.6,2.9,38.8,7,57.5,12.3c18.6,5.2,36.8,11.6,54.2,19.1
    c17.3,7.5,33.9,16.1,49.6,25.8c15.7,9.7,30.5,20.4,44.2,32.2c13.7,11.8,26.4,24.4,38,37.7c11.6,13.3,22.1,27.5,31.4,42.3
    c9.3,14.9,17.5,30.4,24.4,46.5c6.9,16.1,12.5,32.8,16.9,49.8c4.4,17,7.5,34.4,9.2,51.9c1.7,17.5,2.1,35.1,1.2,52.6
    c-0.9,17.5-3.2,35-6.8,52.1c-3.6,17.1-8.6,34-15,50.4c-6.3,16.4-14,32.3-22.9,47.7c-8.9,15.3-19.1,30-30.3,43.8
    c-11.3,13.8-23.7,26.8-37.1,38.8c-13.4,12-27.8,23-43,32.8c-15.2,9.8-31.3,18.5-48,25.9c-16.7,7.4-34,13.5-51.8,18.4
    c-17.8,4.9-36,8.5-54.5,10.8c-18.5,2.3-37.2,3.3-55.9,3c-18.7-0.3-37.4-1.9-55.8-4.9c-18.4-2.9-36.6-7.2-54.4-12.8
    c-17.8-5.6-35.2-12.5-52-20.6c-16.8-8.1-33.1-17.4-48.6-27.9c-15.6-10.5-30.4-22.1-44.3-34.8c-13.9-12.7-26.9-26.5-38.7-41.2
    c-11.9-14.8-22.5-30.6-31.9-47.2c-9.3-16.6-17.3-34-23.8-52c-6.5-18-11.6-36.6-15.2-55.6c-3.6-19-5.8-38.3-6.4-57.7
    c-0.6-19.4,0.3-38.9,2.8-58.2c2.5-19.3,6.4-38.4,11.9-57.1c5.5-18.7,12.5-36.9,21-54.5c8.5-17.7,18.4-34.7,29.7-50.9
    c11.3-16.2,24-31.6,37.8-45.9c13.9-14.4,29-27.7,45.1-39.8c16.1-12.2,33.3-23.1,51.3-32.7c18-9.6,36.8-17.8,56.2-24.5
    c19.4-6.7,39.3-11.9,59.6-15.6c20.3-3.7,40.9-5.8,61.6-6.3c20.7-0.5,41.5,0.5,62,3.1c20.5,2.6,40.7,6.8,60.4,12.4
    c19.7,5.7,38.9,12.9,57.4,21.5c18.5,8.7,36.3,18.7,53.2,30c16.9,11.3,33,23.9,47.8,37.6c14.9,13.7,28.5,28.6,40.8,44.4
    c12.3,15.8,23.2,32.7,32.6,50.2c9.4,17.6,17.2,36,23.4,54.9c6.2,19,10.8,38.5,13.6,58.4c2.8,19.9,3.8,40.1,3.1,60.3
    c-0.7,20.2-3.2,40.3-7.3,60C648.3,267.7,640.1,288.3,631.1,267.7z M584.1,304.6c-2,0.5-4,0.9-6,1.2c-5.5,0.8-11,1.3-16.5,1.7
    c-2.7,0.2-5.4,0.2-8.1,0.1c-5.6-0.1-11.2-0.6-16.7-1.4c-5.4-0.8-10.7-2-15.9-3.6c-5.1-1.5-10-3.3-14.7-5.6c-4-2-7.8-4.3-11.2-7.2
    c-2.7-2.2-5.2-4.8-7.3-7.6c-1.5-2-2.9-4.2-4.1-6.5c-1.8-3.7-3.2-7.5-4.1-11.5c-0.4-1.9-0.7-3.9-0.8-6c0-0.6,0-1.2,0-1.8
    c0-1.9,0.3-3.8,0.7-5.7c0.5-2.2,1.3-4.3,2.3-6.3c0.7-1.3,1.6-2.6,2.6-3.7c2.5-2.7,5.5-4.8,8.9-6.1c2.7-1.1,5.6-1.9,8.5-2.3
    c5.7-0.5,11.4-0.7,17.1-0.4c6.4,0.3,12.8,1.2,19.1,2.5c6.1,1.3,11.9,2.9,17.6,4.8c4.7,1.6,9.3,3.4,13.8,5.4c4.5,2.1,9,4.2,13.6,6
    c3.7,1.5,7.5,2.8,11.3,3.9c3.1,0.9,6.3,1.6,9.5,1.8c0.4,0,0.7,0.1,1.1,0.1c0.3,0,0.7,0,1,0c3.4,0,6.7-0.8,9.6-2.4
    c2.9-1.6,5.3-3.8,7.1-6.4c2.1-3,3.1-6.2,3.5-9.7c0.2-1.8,0.2-3.7,0-5.5c-0.2-2.7-0.8-5.3-1.8-7.8c-1.2-2.8-2.6-5.5-4.2-8.1
    c-2-3.3-4.3-6.4-6.9-9.4c-5.2-5.8-11.4-10.9-18.2-15c-9.3-5.5-19.2-9.9-29.3-13.3c-37.5-12.5-76.2-16.7-115.2-12.3
    c-4.1,0.5-8.1,1-12.2,1.6c-3.9,0.6-7.2-1.9-7.8-5.8c-0.4-2.9,1-5.6,3.5-6.9c0.8-0.4,1.7-0.7,2.6-0.8c3.9-0.6,7.9-1.1,11.8-1.6
    c41.3-4.9,82.4-0.4,122.1,13.1c10.9,3.7,21.5,8.3,31.5,14.3c7.6,4.5,14.5,10.2,20.2,16.7c3,3.4,5.6,7,7.8,11c1.9,3.5,3.6,7.1,5,10.9
    c1.2,3.3,2.1,6.7,2.4,10.2c0.2,2.4,0.2,4.9,0,7.3c-0.5,5.2-2,10.1-4.9,14.5c-2.5,3.7-5.8,6.9-9.7,9.1c-3.9,2.3-8.3,3.6-12.9,3.5
    c-0.6,0-1.1,0-1.7-0.1c-3.9-0.3-7.7-1-11.4-2.1c-3.8-1.2-7.6-2.5-11.4-4C597.4,309.8,590.8,307.3,584.1,304.6z"/>
</svg>