<?xml version="1.0" encoding="UTF-8" standalone="no"?>
<svg xmlns="http://www.w3.org/2000/svg" viewBox="0 0 800 800">
<path fill="#000000" d="M693.2,397.5c-0.9-6.2-2.1-12.4-3.5-18.5c-1.4-6.2-3.1-12.3-5-18.3c-1.9-6-4.1-12-6.5-17.8
  c-2.4-5.8-5-11.5-7.9-17.1c-2.9-5.6-6-11.1-9.3-16.4c-3.3-5.3-6.9-10.5-10.6-15.5c-3.8-5-7.8-9.9-11.9-14.5
  c-4.1-4.7-8.5-9.2-13-13.5c-4.5-4.3-9.2-8.4-14-12.3c-4.8-3.9-9.8-7.6-14.9-11.1c-5.1-3.5-10.4-6.8-15.8-9.9
  c-5.4-3.1-10.9-6-16.5-8.7c-5.6-2.7-11.3-5.2-17.1-7.5c-5.8-2.3-11.7-4.3-17.6-6.2c-5.9-1.8-11.9-3.5-18-4.9
  c-6-1.5-12.1-2.7-18.3-3.8c-6.1-1-12.3-1.9-18.5-2.5c-6.2-0.6-12.4-1-18.7-1.3c-6.2-0.2-12.5-0.3-18.7-0.1
  c-6.2,0.1-12.5,0.4-18.7,0.9c-6.2,0.5-12.4,1.2-18.6,2.1c-6.2,0.9-12.3,1.9-18.4,3.2c-6.1,1.2-12.2,2.6-18.2,4.1
  c-6,1.5-12,3.2-17.9,5.1c-5.9,1.9-11.8,3.9-17.5,6.1c-5.8,2.2-11.5,4.5-17.1,7c-5.6,2.5-11.1,5.1-16.5,7.9
  c-5.4,2.8-10.7,5.7-15.8,8.7c-5.1,3-10.2,6.2-15.1,9.5c-4.9,3.3-9.7,6.8-14.4,10.4c-4.7,3.6-9.2,7.3-13.6,11.2
  c-4.4,3.8-8.7,7.8-12.8,11.9c-4.1,4.1-8,8.3-11.8,12.6c-3.8,4.3-7.4,8.8-10.9,13.3c-3.5,4.6-6.8,9.2-9.9,14
  c-3.1,4.8-6.1,9.6-8.9,14.6c-2.8,4.9-5.4,10-7.9,15.1c-2.5,5.1-4.8,10.3-6.9,15.6c-2.1,5.3-4,10.6-5.8,16
  c-1.7,5.4-3.3,10.8-4.7,16.3c-1.4,5.5-2.6,11-3.6,16.6c-1,5.6-1.8,11.2-2.5,16.8c-0.6,5.6-1.1,11.3-1.3,16.9
  c-0.3,5.7-0.3,11.3-0.2,17c0.1,5.6,0.4,11.3,0.9,16.9c0.5,5.6,1.2,11.2,2.1,16.8c0.9,5.6,1.9,11.1,3.1,16.6
  c1.2,5.5,2.6,10.9,4.1,16.3c1.5,5.4,3.2,10.7,5,15.9c1.8,5.2,3.9,10.3,6,15.4c2.2,5,4.5,10,7,14.9c2.5,4.9,5.2,9.7,8,14.4
  c2.8,4.7,5.7,9.3,8.8,13.7c3.1,4.4,6.3,8.7,9.6,12.9c3.3,4.2,6.8,8.3,10.3,12.2c3.6,3.9,7.3,7.7,11.1,11.3
  c3.8,3.6,7.7,7.1,11.7,10.5c4,3.3,8.2,6.5,12.4,9.6c4.2,3.1,8.5,6,12.9,8.8c4.4,2.8,8.9,5.4,13.4,7.9c4.6,2.5,9.2,4.8,13.9,7
  c4.7,2.2,9.5,4.2,14.3,6.1c4.8,1.9,9.7,3.6,14.6,5.1c4.9,1.6,9.9,2.9,14.9,4.2c5,1.2,10,2.3,15.1,3.2c5.1,0.9,10.2,1.6,15.3,2.2
  c5.1,0.6,10.3,1,15.5,1.2c5.2,0.2,10.4,0.3,15.5,0.1c5.2-0.1,10.3-0.5,15.5-1c5.1-0.5,10.3-1.2,15.4-2.1c5.1-0.9,10.2-1.9,15.2-3.1
  c5-1.2,10-2.6,15-4.1c4.9-1.5,9.8-3.2,14.6-5c4.8-1.8,9.6-3.8,14.3-5.9c4.7-2.1,9.3-4.4,13.8-6.9c4.5-2.4,9-5,13.3-7.7
  c4.3-2.7,8.6-5.6,12.7-8.6c4.1-3,8.2-6.1,12.1-9.4c3.9-3.3,7.7-6.7,11.4-10.2c3.7-3.5,7.3-7.2,10.7-11c3.4-3.8,6.7-7.7,9.9-11.7
  c3.2-4,6.3-8.1,9.2-12.3c2.9-4.2,5.7-8.5,8.4-12.9c2.6-4.4,5.1-8.8,7.5-13.4c2.3-4.5,4.5-9.2,6.6-13.9c2-4.7,3.9-9.4,5.6-14.2
  c1.7-4.8,3.3-9.7,4.7-14.6c1.4-4.9,2.7-9.8,3.8-14.8c1.1-5,2-10,2.8-15.1c0.8-5,1.4-10.1,1.9-15.2c0.5-5.1,0.7-10.2,0.8-15.3
  C693.6,407.8,693.5,402.6,693.2,397.5z M545.8,293.5c20.9,13.4,37,32.5,47.6,55.1c5.5,11.7,9.6,24.1,12.2,36.9
  c0.6,3.2,1.2,6.4,1.6,9.6c0.6,4.6-3.4,8.7-8,8.1c-3.4-0.4-6.1-3.2-6.7-6.6c-0.3-1.9-0.7-3.7-1.1-5.6c-2-9.9-4.8-19.5-8.6-28.7
  c-7.4-18.3-18.6-34.7-33.1-47.9c-14.3-13-30.9-22.7-49.3-28.3c-9.3-2.8-18.8-4.7-28.6-5.6c-16.1-1.5-32.1-0.5-47.8,3
  c-15.2,3.3-29.5,8.7-42.7,16.6c-13.6,8.1-25.4,18.4-35.3,30.6c-2.5,3.1-4.8,6.3-7,9.6c-2.9,4.3-8.7,5.5-13,2.6
  c-3.2-2.2-4.8-5.9-4-9.7c0.4-1.9,1.5-3.8,2.9-5.5c2.9-3.5,5.8-6.9,9-10.1c15.5-15.7,34.2-27.6,55.9-34.8
  c15.9-5.3,32.5-8.1,49.5-8.3c20.9-0.2,41.1,3.6,60,11.3C515.4,286.2,530.9,289.5,545.8,293.5z"/>
<path fill="#000000" d="M319.8,259.8c-4-2.3-7.8-4.8-11.7-7.3c-2.1-1.3-4.1-2.6-6.1-4c-30-20.9-56.5-46.6-78.1-76.5
  c-10.8-15-20-31-27.5-47.8c-7.5-16.8-13.1-34.5-17-52.5c-0.9-4.5-1.8-9-2.4-13.6c-0.5-3.1,0.3-6.1,2.3-8.5c2-2.4,5-3.8,8.2-3.8
  c0.4,0,0.7,0,1.1,0c3.5,0.3,6.4,2.4,7.8,5.5c0.5,1.1,0.8,2.3,1,3.4c0.6,3.5,1.2,7,1.9,10.5c1.4,6.9,3.1,13.7,5,20.4
  c3.9,13.4,8.8,26.4,14.8,38.9c10.8,22.7,25,43.5,42.5,61.8c17.9,18.8,38.7,34.8,61.8,47.5c3.8,2.1,5.1,6.8,3,10.6
  c-1.4,2.5-4,3.9-6.7,3.9c-0.6,0-1.3-0.1-1.9-0.2C319.8,249.8,319.8,254.8,319.8,259.8z"/>
<path fill="#000000" d="M321.2,365.7c-0.6-2.5-0.8-5.1-0.8-7.6c0-5.9,1.4-11.8,4.1-17.1c3.1-6.1,7.7-11.2,13.5-14.8
  c5.8-3.6,12.5-5.6,19.4-5.8c0.5,0,1,0,1.5,0c2.7,0,5.4,0.3,8,0.9c6.3,1.4,12.1,4.3,16.9,8.5c6.5,5.8,10.9,13.6,12.6,22.3
  c0.3,1.5,0.5,3,0.6,4.6c0.1,0.8,0.1,1.6,0.1,2.4c0,5.9-1.4,11.8-4.1,17.1c-3.1,6.1-7.7,11.2-13.5,14.8c-5.8,3.6-12.5,5.6-19.4,5.8
  c-0.5,0-1,0-1.5,0c-2.7,0-5.4-0.3-8-0.9c-6.3-1.4-12.1-4.3-16.9-8.5c-4.8-4.3-8.6-9.7-10.9-15.9c-0.8-2.1-1.4-4.3-1.7-6.5
  C321.2,365.1,321.2,365.4,321.2,365.7z"/>
</svg>